<svg width="108" height="29" viewBox="0 0 108 29" fill="none" xmlns="http://www.w3.org/2000/svg">
<path d="M27.4224 0.434509H30.2225C32.4916 0.434509 33.9883 1.93116 33.9883 3.95887C33.9883 5.98659 32.4916 7.48324 30.2225 7.48324H27.4224V0.434509ZM30.1743 7.04873C32.202 7.04873 33.4572 5.79347 33.4572 3.95887C33.4572 2.12427 32.1537 0.86902 30.1743 0.86902H27.9052V7.04873H30.1743Z" fill="url(#paint0_linear_9_260)"/>
<path d="M35.4367 0.531099C35.4367 0.289704 35.6298 0.0965881 35.8712 0.0965881C36.1126 0.0965881 36.2574 0.289704 36.2574 0.531099C36.2574 0.772493 36.0643 0.917331 35.8229 0.917331C35.6298 0.96561 35.4367 0.772493 35.4367 0.531099ZM35.6298 2.22086H36.1126V7.53155H35.6298V2.22086Z" fill="url(#paint1_linear_9_260)"/>
<path d="M37.4644 6.90385L37.7058 6.51762C38.2368 6.95213 38.9127 7.14525 39.5886 7.14525C40.6991 7.14525 41.1336 6.75902 41.1336 6.13139C41.1336 4.58646 37.6092 5.74516 37.6092 3.66916C37.6092 2.84842 38.2851 2.22079 39.6369 2.22079C40.2645 2.22079 40.8922 2.41391 41.4715 2.75186L41.2301 3.1381C40.7473 2.80014 40.2163 2.65531 39.6369 2.65531C38.6231 2.65531 38.1403 3.08982 38.1403 3.66916C38.1403 5.26237 41.6646 4.15195 41.6646 6.13139C41.6646 7.00041 40.9405 7.57976 39.5886 7.57976C38.8162 7.57976 38.092 7.33836 37.4644 6.90385Z" fill="url(#paint2_linear_9_260)"/>
<path d="M48.3754 4.87619C48.4237 6.27628 47.3616 7.48325 45.9615 7.57981C45.9132 7.57981 45.8167 7.57981 45.7684 7.57981C44.8511 7.57981 44.0303 7.09702 43.5958 6.32456V9.51097H43.113V2.26913H43.5958V3.52438C44.0303 2.70364 44.8511 2.22085 45.7684 2.22085C47.1685 2.17257 48.3754 3.33126 48.3754 4.73135C48.3754 4.77963 48.3754 4.82791 48.3754 4.87619ZM47.8927 4.87619C47.9409 3.71749 47.0236 2.70364 45.8649 2.65536C44.7062 2.60708 43.6924 3.52438 43.6441 4.68307C43.6441 4.73135 43.6441 4.82791 43.6441 4.87619C43.5958 6.03488 44.5131 7.04874 45.6718 7.09702C46.8305 7.1453 47.8444 6.228 47.8927 5.06931C47.8927 5.02103 47.8927 4.92447 47.8927 4.87619Z" fill="url(#paint3_linear_9_260)"/>
<path d="M49.3893 4.87619C49.3411 3.42782 50.4997 2.22085 51.9964 2.17257C53.4448 2.12429 54.6517 3.28298 54.7 4.77963C54.7 4.82791 54.7 4.82791 54.7 4.87619C54.7483 6.32456 53.5896 7.53153 52.093 7.57981C50.6446 7.62809 49.4376 6.46939 49.3893 4.97275C49.3893 4.92447 49.3893 4.92447 49.3893 4.87619ZM54.1689 4.87619C54.2172 3.71749 53.2999 2.70364 52.1412 2.65536C50.9825 2.60708 49.9687 3.52438 49.9204 4.68307C49.9204 4.73135 49.9204 4.82791 49.9204 4.87619C49.8721 6.03488 50.7894 7.04874 51.9481 7.09702C53.1068 7.1453 54.1207 6.228 54.1689 5.0693C54.1689 5.02103 54.1689 4.92447 54.1689 4.87619Z" fill="url(#paint4_linear_9_260)"/>
<path d="M60.9763 4.44165V7.5315H60.4935V4.48992C60.4935 3.28295 59.8659 2.65532 58.8037 2.65532C57.7416 2.60705 56.8726 3.37951 56.776 4.39337C56.776 4.48992 56.776 4.58648 56.776 4.68304V7.48322H56.2932V2.17254H56.776V3.33123C57.1622 2.55877 57.983 2.07598 58.852 2.12426C60.1072 2.17253 60.9763 2.945 60.9763 4.44165Z" fill="url(#paint5_linear_9_260)"/>
<path d="M62.9075 0.531099C62.9075 0.289704 63.1006 0.0965881 63.342 0.0965881C63.5834 0.0965881 63.7282 0.289704 63.7282 0.531099C63.7282 0.772493 63.5351 0.917331 63.2937 0.917331C63.1006 0.96561 62.9075 0.772493 62.9075 0.531099ZM63.0523 2.22086H63.5351V7.53155H63.0523V2.22086Z" fill="url(#paint6_linear_9_260)"/>
<path d="M70.97 4.87617C71.0183 6.27626 69.9562 7.48324 68.5078 7.5798C68.4595 7.5798 68.4113 7.5798 68.3147 7.5798C67.3974 7.62808 66.5767 7.09701 66.1422 6.27626V7.53152H65.6594V0H66.1422V3.42781C66.5767 2.65534 67.3974 2.17255 68.3147 2.17255C69.7148 2.12427 70.9218 3.23469 70.9218 4.68306C70.97 4.73134 70.97 4.82789 70.97 4.87617ZM70.4873 4.87617C70.5355 3.71748 69.6182 2.70362 68.4595 2.65534C67.3008 2.60706 66.287 3.52436 66.2387 4.68306C66.2387 4.73134 66.2387 4.82789 66.2387 4.87617C66.1904 6.03487 67.1077 7.04873 68.2664 7.09701C69.4251 7.14529 70.439 6.22799 70.4873 5.06929C70.4873 5.02101 70.4873 4.92445 70.4873 4.87617Z" fill="url(#paint7_linear_9_260)"/>
<path d="M72.5632 0H73.046V7.53152H72.5632V0Z" fill="url(#paint8_linear_9_260)"/>
<path d="M79.6602 5.02097H75.122C75.2186 6.27623 76.2807 7.19353 77.536 7.14525C78.1153 7.09697 78.6464 6.85557 79.0326 6.42106L79.3223 6.75902C78.8395 7.33836 78.067 7.62804 77.3429 7.62804C75.8945 7.67632 74.6875 6.61418 74.6392 5.16581C74.6392 5.06925 74.6392 5.02098 74.6392 4.92442C74.5427 3.52433 75.6048 2.31735 77.0049 2.22079C77.0532 2.22079 77.1014 2.22079 77.1497 2.22079C78.5498 2.22079 79.6602 3.33121 79.6602 4.68302C79.6602 4.7313 79.6602 4.82786 79.6602 4.87614C79.6602 4.87614 79.6602 4.97269 79.6602 5.02097ZM75.122 4.58646H79.1774C79.1774 3.47605 78.2601 2.55875 77.1497 2.55875C76.0393 2.55875 75.122 3.47605 75.122 4.58646Z" fill="url(#paint9_linear_9_260)"/>
<path d="M88.3021 5.02103H83.7639C83.8605 6.27628 84.9226 7.19358 86.1779 7.1453C86.7572 7.09702 87.2883 6.85563 87.6745 6.42112L87.9642 6.75907C87.4814 7.33842 86.7089 7.62809 85.9847 7.62809C84.5364 7.67637 83.3294 6.61423 83.2811 5.16587C83.2811 5.06931 83.2811 5.02103 83.2811 4.92447C83.1846 3.52438 84.2467 2.31741 85.6468 2.22085C87.0469 2.12429 88.2539 3.18643 88.3504 4.58652C88.3504 4.68308 88.3504 4.77963 88.3504 4.87619C88.3504 4.87619 88.3021 4.97275 88.3021 5.02103ZM83.7639 4.58652H87.8193C87.8193 3.4761 86.902 2.5588 85.7916 2.5588C84.6812 2.5588 83.7639 3.4761 83.7639 4.58652Z" fill="url(#paint10_linear_9_260)"/>
<path d="M94.6267 4.44165V7.5315H94.1439V4.48992C94.1439 3.28295 93.5163 2.65532 92.4542 2.65532C91.392 2.60705 90.523 3.37951 90.4265 4.39337C90.4265 4.48992 90.4265 4.58648 90.4265 4.68304V7.48322H89.9437V2.17254H90.4265V3.33123C90.8127 2.55877 91.6334 2.07598 92.5024 2.12426C93.7577 2.17253 94.6267 2.945 94.6267 4.44165Z" fill="url(#paint11_linear_9_260)"/>
<path d="M103.8 5.021H99.2615C99.358 6.27625 100.42 7.19355 101.675 7.14527C102.255 7.09699 102.786 6.8556 103.172 6.42109L103.462 6.75904C102.979 7.33839 102.207 7.62806 101.482 7.62806C100.034 7.67634 98.827 6.6142 98.7787 5.16583C98.7787 5.06928 98.7787 5.021 98.7787 4.92444C98.6821 3.52435 99.7443 2.31738 101.144 2.2691C102.544 2.17254 103.751 3.23467 103.8 4.63476C103.8 4.73132 103.8 4.82788 103.8 4.92444C103.8 4.87616 103.8 4.97272 103.8 5.021ZM99.2615 4.58649H103.317C103.317 3.47607 102.4 2.55877 101.289 2.55877C100.179 2.55877 99.2615 3.47607 99.2615 4.58649Z" fill="url(#paint12_linear_9_260)"/>
<path d="M105.393 0H105.876V7.53152H105.393V0Z" fill="url(#paint13_linear_9_260)"/>
<path d="M35.1953 22.4962H29.1122L27.8569 25.3447H26.1672L31.3813 13.8543H33.0228L38.2369 25.3447H36.4989L35.1953 22.4962ZM34.616 21.1927L32.1538 15.5923L29.6915 21.241H34.616V21.1927Z" fill="url(#paint14_linear_9_260)"/>
<path d="M48.6651 21.0496C48.6651 23.7049 46.8305 25.4913 44.2717 25.4913C43.1131 25.5395 41.9544 25.0085 41.2302 24.0912V28.5811H39.637V16.7045H41.1336V18.1046C41.8578 17.139 43.0165 16.6079 44.2235 16.6562C46.5409 16.5596 48.5203 18.346 48.6169 20.7116C48.7134 20.7599 48.7134 20.9048 48.6651 21.0496ZM47.0719 21.0496C47.1202 19.4081 45.865 18.0563 44.2717 18.008C42.6303 17.9597 41.2785 19.215 41.2302 20.8082C41.2302 20.9048 41.2302 20.953 41.2302 21.0496C41.2302 22.8842 42.4854 24.1394 44.1752 24.1394C45.8167 24.0912 47.0719 22.8842 47.0719 21.0496Z" fill="url(#paint15_linear_9_260)"/>
<path d="M59.8659 21.0496C59.8659 23.7049 58.0313 25.4913 55.4725 25.4913C54.3138 25.5395 53.1551 25.0085 52.4309 24.0912V28.5811H50.8377V16.7045H52.3344V18.1046C53.0585 17.139 54.2172 16.6079 55.4242 16.6562C57.7416 16.5596 59.721 18.346 59.8176 20.7116C59.8659 20.7599 59.8659 20.9048 59.8659 21.0496ZM58.2727 21.0496C58.321 19.4081 57.0657 18.0563 55.4725 18.008C53.831 17.9597 52.4792 19.215 52.4309 20.8082C52.4309 20.9048 52.4309 20.953 52.4309 21.0496C52.4309 22.8842 53.6862 24.1394 55.3759 24.1394C57.0174 24.0912 58.2727 22.8842 58.2727 21.0496Z" fill="url(#paint16_linear_9_260)"/>
<path d="M65.6594 24.0912L66.287 22.7877C67.3491 23.6567 68.7009 24.1395 70.101 24.1395C72.0805 24.1395 72.9495 23.367 72.9495 22.3531C72.9495 19.553 65.9973 21.3393 65.9973 17.0425C65.9973 15.2561 67.3974 13.7595 70.3907 13.7595C71.6942 13.7595 72.9977 14.0974 74.0599 14.7733L73.5288 16.0769C72.6115 15.4975 71.5011 15.1596 70.3907 15.1596C68.4595 15.1596 67.5905 15.9803 67.5905 16.9942C67.5905 19.7944 74.5427 18.0563 74.5427 22.2566C74.5427 23.9946 73.1426 25.5396 70.101 25.5396C68.3147 25.5396 66.5767 24.9119 65.6594 24.0912Z" fill="url(#paint17_linear_9_260)"/>
<path d="M81.5431 24.8637C81.0121 25.2982 80.3362 25.4913 79.6603 25.4913C77.9222 25.4913 76.9084 24.5257 76.9084 22.7877V18.0081H75.4117V16.7045H76.9084V14.8217H78.5016V16.7045H81.0121V18.0081H78.5016V22.7394C78.5016 23.6567 78.9844 24.1878 79.8534 24.1878C80.2879 24.1878 80.7224 24.0429 81.0604 23.8015L81.5431 24.8637Z" fill="url(#paint18_linear_9_260)"/>
<path d="M82.3639 21.0496C82.3639 18.4426 84.2951 16.608 86.9021 16.608C89.3644 16.6563 91.2955 18.684 91.2472 21.1462C91.199 23.6084 89.1712 25.5396 86.709 25.4913C84.295 25.443 82.3639 23.4636 82.3639 21.0496ZM89.8471 21.0496C89.8471 19.215 88.5919 18.0081 86.9021 18.0081C85.3089 17.9598 84.0054 19.215 83.9571 20.8082C83.9571 20.9048 83.9571 21.0014 83.9571 21.0496C83.9571 22.8842 85.2124 24.1395 86.9021 24.1395C88.5919 24.1395 89.8471 22.8842 89.8471 21.0496Z" fill="url(#paint19_linear_9_260)"/>
<path d="M98.2959 16.608V18.1529C98.1993 18.1529 98.0545 18.1529 97.9579 18.1529C96.2681 18.1529 95.206 19.1668 95.206 21.0979V25.443H93.6128V16.7528H95.1095V18.2012C95.6888 17.139 96.7509 16.608 98.2959 16.608Z" fill="url(#paint20_linear_9_260)"/>
<path d="M107.952 21.5807H100.903C101.096 23.1256 102.351 24.1395 104.041 24.1395C105.007 24.1878 105.924 23.8015 106.552 23.0774L107.421 24.0912C106.552 25.0568 105.296 25.5879 103.993 25.4913C101.193 25.4913 99.3098 23.6567 99.3098 21.0496C99.2132 18.684 101.048 16.7045 103.414 16.608C103.51 16.608 103.607 16.608 103.703 16.608C106.214 16.608 108 18.3943 108 21.0979C108 21.2428 108 21.4359 107.952 21.5807ZM100.903 20.422H106.503C106.31 18.8771 104.958 17.7667 103.414 17.9598C102.062 18.1046 101.048 19.1185 100.903 20.422Z" fill="url(#paint21_linear_9_260)"/>
<path fill-rule="evenodd" clip-rule="evenodd" d="M11.0076 4.10371C11.9249 2.84845 13.3733 2.07599 14.9182 1.93115C15.063 3.37952 14.5802 4.77961 13.6629 5.89003C11.9249 7.96602 9.99372 7.62807 9.99372 7.62807C9.99372 7.62807 9.55921 6.03486 11.0076 4.10371Z" fill="url(#paint22_linear_9_260)"/>
<path fill-rule="evenodd" clip-rule="evenodd" d="M10.38 8.49711C11.2007 8.49711 12.7939 7.33841 14.7733 7.33841C16.7045 7.24185 18.5391 8.20743 19.6012 9.80064C17.9115 10.7662 16.8976 12.5525 16.8976 14.4837C16.8976 16.6563 18.2012 18.6357 20.2289 19.5047C20.2289 19.5047 17.9115 26.0706 14.7251 26.0706C13.2767 26.0706 12.1663 25.1051 10.6214 25.1051C9.07644 25.1051 7.53152 26.1189 6.51766 26.1189C3.62092 26.1189 0 19.8909 0 14.8699C0 9.94548 3.08985 7.38669 5.93831 7.38669C7.91774 7.43497 9.36612 8.49711 10.38 8.49711Z" fill="url(#paint23_linear_9_260)"/>
<defs>
<linearGradient id="paint0_linear_9_260" x1="0.875056" y1="-3.52649" x2="107.947" y2="24.9218" gradientUnits="userSpaceOnUse">
<stop offset="0.00129474" stop-color="#1DA1F1"/>
<stop offset="1" stop-color="#32C9AC"/>
</linearGradient>
<linearGradient id="paint1_linear_9_260" x1="1.35175" y1="-5.31896" x2="108.422" y2="23.1287" gradientUnits="userSpaceOnUse">
<stop offset="0.00129474" stop-color="#1DA1F1"/>
<stop offset="1" stop-color="#32C9AC"/>
</linearGradient>
<linearGradient id="paint2_linear_9_260" x1="1.34271" y1="-5.28697" x2="108.415" y2="23.1613" gradientUnits="userSpaceOnUse">
<stop offset="0.00129474" stop-color="#1DA1F1"/>
<stop offset="1" stop-color="#32C9AC"/>
</linearGradient>
<linearGradient id="paint3_linear_9_260" x1="1.43528" y1="-5.63482" x2="108.507" y2="22.8134" gradientUnits="userSpaceOnUse">
<stop offset="0.00129474" stop-color="#1DA1F1"/>
<stop offset="1" stop-color="#32C9AC"/>
</linearGradient>
<linearGradient id="paint4_linear_9_260" x1="2.16136" y1="-8.36769" x2="109.233" y2="20.0806" gradientUnits="userSpaceOnUse">
<stop offset="0.00129474" stop-color="#1DA1F1"/>
<stop offset="1" stop-color="#32C9AC"/>
</linearGradient>
<linearGradient id="paint5_linear_9_260" x1="2.5423" y1="-9.80166" x2="109.614" y2="18.6467" gradientUnits="userSpaceOnUse">
<stop offset="0.00129474" stop-color="#1DA1F1"/>
<stop offset="1" stop-color="#32C9AC"/>
</linearGradient>
<linearGradient id="paint6_linear_9_260" x1="3.16058" y1="-12.1299" x2="110.233" y2="16.3187" gradientUnits="userSpaceOnUse">
<stop offset="0.00129474" stop-color="#1DA1F1"/>
<stop offset="1" stop-color="#32C9AC"/>
</linearGradient>
<linearGradient id="paint7_linear_9_260" x1="3.35735" y1="-12.8689" x2="110.429" y2="15.5794" gradientUnits="userSpaceOnUse">
<stop offset="0.00129474" stop-color="#1DA1F1"/>
<stop offset="1" stop-color="#32C9AC"/>
</linearGradient>
<linearGradient id="paint8_linear_9_260" x1="3.80854" y1="-14.5672" x2="110.88" y2="13.8811" gradientUnits="userSpaceOnUse">
<stop offset="0.00129474" stop-color="#1DA1F1"/>
<stop offset="1" stop-color="#32C9AC"/>
</linearGradient>
<linearGradient id="paint9_linear_9_260" x1="3.82043" y1="-14.6127" x2="110.892" y2="13.8356" gradientUnits="userSpaceOnUse">
<stop offset="0.00129474" stop-color="#1DA1F1"/>
<stop offset="1" stop-color="#32C9AC"/>
</linearGradient>
<linearGradient id="paint10_linear_9_260" x1="4.39069" y1="-16.7584" x2="111.462" y2="11.6898" gradientUnits="userSpaceOnUse">
<stop offset="0.00129474" stop-color="#1DA1F1"/>
<stop offset="1" stop-color="#32C9AC"/>
</linearGradient>
<linearGradient id="paint11_linear_9_260" x1="4.76234" y1="-18.1575" x2="111.834" y2="10.2909" gradientUnits="userSpaceOnUse">
<stop offset="0.00129474" stop-color="#1DA1F1"/>
<stop offset="1" stop-color="#32C9AC"/>
</linearGradient>
<linearGradient id="paint12_linear_9_260" x1="5.41067" y1="-20.5982" x2="112.483" y2="7.85017" gradientUnits="userSpaceOnUse">
<stop offset="0.00129474" stop-color="#1DA1F1"/>
<stop offset="1" stop-color="#32C9AC"/>
</linearGradient>
<linearGradient id="paint13_linear_9_260" x1="5.97387" y1="-22.7168" x2="113.046" y2="5.73149" gradientUnits="userSpaceOnUse">
<stop offset="0.00129474" stop-color="#1DA1F1"/>
<stop offset="1" stop-color="#32C9AC"/>
</linearGradient>
<linearGradient id="paint14_linear_9_260" x1="-2.98313" y1="10.9932" x2="104.089" y2="39.4415" gradientUnits="userSpaceOnUse">
<stop offset="0.00129474" stop-color="#1DA1F1"/>
<stop offset="1" stop-color="#32C9AC"/>
</linearGradient>
<linearGradient id="paint15_linear_9_260" x1="-2.87099" y1="10.5727" x2="104.201" y2="39.021" gradientUnits="userSpaceOnUse">
<stop offset="0.00129474" stop-color="#1DA1F1"/>
<stop offset="1" stop-color="#32C9AC"/>
</linearGradient>
<linearGradient id="paint16_linear_9_260" x1="-2.13284" y1="7.79445" x2="104.939" y2="36.2428" gradientUnits="userSpaceOnUse">
<stop offset="0.00129474" stop-color="#1DA1F1"/>
<stop offset="1" stop-color="#32C9AC"/>
</linearGradient>
<linearGradient id="paint17_linear_9_260" x1="-0.305203" y1="0.916518" x2="106.766" y2="29.3646" gradientUnits="userSpaceOnUse">
<stop offset="0.00129474" stop-color="#1DA1F1"/>
<stop offset="1" stop-color="#32C9AC"/>
</linearGradient>
<linearGradient id="paint18_linear_9_260" x1="0.141662" y1="-0.764771" x2="107.213" y2="27.6833" gradientUnits="userSpaceOnUse">
<stop offset="0.00129474" stop-color="#1DA1F1"/>
<stop offset="1" stop-color="#32C9AC"/>
</linearGradient>
<linearGradient id="paint19_linear_9_260" x1="0.442843" y1="-1.89982" x2="107.515" y2="26.5485" gradientUnits="userSpaceOnUse">
<stop offset="0.00129474" stop-color="#1DA1F1"/>
<stop offset="1" stop-color="#32C9AC"/>
</linearGradient>
<linearGradient id="paint20_linear_9_260" x1="1.05676" y1="-4.21088" x2="108.129" y2="24.2374" gradientUnits="userSpaceOnUse">
<stop offset="0.00129474" stop-color="#1DA1F1"/>
<stop offset="1" stop-color="#32C9AC"/>
</linearGradient>
<linearGradient id="paint21_linear_9_260" x1="1.56243" y1="-6.11332" x2="108.634" y2="22.3349" gradientUnits="userSpaceOnUse">
<stop offset="0.00129474" stop-color="#1DA1F1"/>
<stop offset="1" stop-color="#32C9AC"/>
</linearGradient>
<linearGradient id="paint22_linear_9_260" x1="-0.43411" y1="1.40105" x2="106.638" y2="29.8493" gradientUnits="userSpaceOnUse">
<stop offset="0.00129474" stop-color="#1DA1F1"/>
<stop offset="1" stop-color="#32C9AC"/>
</linearGradient>
<linearGradient id="paint23_linear_9_260" x1="-3.49293" y1="12.9138" x2="103.579" y2="41.362" gradientUnits="userSpaceOnUse">
<stop offset="0.00129474" stop-color="#1DA1F1"/>
<stop offset="1" stop-color="#32C9AC"/>
</linearGradient>
</defs>
</svg>
