<svg width="24" height="24" viewBox="0 0 24 24" fill="none" xmlns="http://www.w3.org/2000/svg">
<path d="M10.332 2.60352C9.90885 2.60352 9.56706 2.74023 9.30664 3.01367C9.04622 3.2806 8.91602 3.63216 8.91602 4.06836V14.9082L9.0625 18.5703L9.87305 18.0332L7.04102 14.7617L4.84375 12.5742C4.71354 12.444 4.5638 12.3398 4.39453 12.2617C4.23177 12.1771 4.04622 12.1348 3.83789 12.1348C3.45378 12.1348 3.13151 12.2617 2.87109 12.5156C2.61719 12.7695 2.49023 13.0951 2.49023 13.4922C2.49023 13.8763 2.63672 14.2148 2.92969 14.5078L9.28711 20.875C9.41732 21.0117 9.57357 21.1159 9.75586 21.1875C9.94466 21.2656 10.1367 21.3047 10.332 21.3047C10.5208 21.3047 10.7096 21.2656 10.8984 21.1875C11.0872 21.1159 11.2467 21.0117 11.377 20.875L17.7344 14.5078C18.0273 14.2148 18.1738 13.8763 18.1738 13.4922C18.1738 13.0951 18.0436 12.7695 17.7832 12.5156C17.5293 12.2617 17.2103 12.1348 16.8262 12.1348C16.6178 12.1348 16.429 12.1771 16.2598 12.2617C16.0905 12.3398 15.944 12.444 15.8203 12.5742L13.6133 14.7617L10.7812 18.0332L11.5918 18.5703L11.7383 14.9082V4.06836C11.7383 3.63216 11.6081 3.2806 11.3477 3.01367C11.0872 2.74023 10.7487 2.60352 10.332 2.60352Z" fill="white"/>
</svg>
