<svg width="24" height="24" viewBox="0 0 24 24" fill="none" xmlns="http://www.w3.org/2000/svg">
<path d="M21.5039 11.9199C21.5039 11.5033 21.3607 11.1549 21.0742 10.875L14.7168 4.52734C14.5671 4.3776 14.4076 4.26693 14.2383 4.19531C14.069 4.11719 13.8965 4.07812 13.7207 4.07812C13.304 4.07812 12.9688 4.20833 12.7148 4.46875C12.4609 4.72266 12.334 5.03841 12.334 5.41602C12.334 5.63086 12.373 5.82292 12.4512 5.99219C12.5358 6.15495 12.6432 6.30143 12.7734 6.43164L14.9609 8.62891L18.1934 11.5977L18.7891 10.709L15 10.5039H3.95508C3.51888 10.5039 3.16406 10.6341 2.89062 10.8945C2.6237 11.1549 2.49023 11.4967 2.49023 11.9199C2.49023 12.3431 2.6237 12.6849 2.89062 12.9453C3.16406 13.2057 3.51888 13.3359 3.95508 13.3359H15L18.7891 13.1309L18.1934 12.2422L14.9609 15.2109L12.7734 17.3984C12.6432 17.5286 12.5358 17.6784 12.4512 17.8477C12.373 18.0104 12.334 18.1992 12.334 18.4141C12.334 18.7917 12.4609 19.1074 12.7148 19.3613C12.9688 19.6217 13.304 19.752 13.7207 19.752C14.0853 19.752 14.4141 19.6055 14.707 19.3125L21.0742 12.9648C21.3607 12.6784 21.5039 12.3301 21.5039 11.9199Z" fill="white"/>
</svg>
