<svg width="163" height="61" viewBox="0 0 163 61" fill="none" xmlns="http://www.w3.org/2000/svg">
<g filter="url(#filter0_dd_9_158)">
<rect x="9.08643" y="9.26489" width="144.806" height="41.8234" rx="11.5931" fill="#F2FBFC"/>
<path d="M54.4224 16.4345H57.2225C59.4916 16.4345 60.9883 17.9312 60.9883 19.9589C60.9883 21.9866 59.4916 23.4832 57.2225 23.4832H54.4224V16.4345ZM57.1743 23.0487C59.202 23.0487 60.4572 21.7935 60.4572 19.9589C60.4572 18.1243 59.1537 16.869 57.1743 16.869H54.9052V23.0487H57.1743Z" fill="url(#paint0_linear_9_158)"/>
<path d="M62.4367 16.5311C62.4367 16.2897 62.6298 16.0966 62.8712 16.0966C63.1126 16.0966 63.2574 16.2897 63.2574 16.5311C63.2574 16.7725 63.0643 16.9173 62.8229 16.9173C62.6298 16.9656 62.4367 16.7725 62.4367 16.5311ZM62.6298 18.2209H63.1126V23.5315H62.6298V18.2209Z" fill="url(#paint1_linear_9_158)"/>
<path d="M64.4644 22.9039L64.7058 22.5176C65.2368 22.9521 65.9127 23.1452 66.5886 23.1452C67.6991 23.1452 68.1336 22.759 68.1336 22.1314C68.1336 20.5865 64.6092 21.7452 64.6092 19.6692C64.6092 18.8484 65.2851 18.2208 66.6369 18.2208C67.2645 18.2208 67.8922 18.4139 68.4715 18.7519L68.2301 19.1381C67.7473 18.8001 67.2163 18.6553 66.6369 18.6553C65.6231 18.6553 65.1403 19.0898 65.1403 19.6692C65.1403 21.2624 68.6646 20.152 68.6646 22.1314C68.6646 23.0004 67.9405 23.5798 66.5886 23.5798C65.8162 23.5798 65.092 23.3384 64.4644 22.9039Z" fill="url(#paint2_linear_9_158)"/>
<path d="M75.3754 20.8762C75.4237 22.2763 74.3616 23.4833 72.9615 23.5798C72.9132 23.5798 72.8167 23.5798 72.7684 23.5798C71.8511 23.5798 71.0303 23.097 70.5958 22.3246V25.511H70.113V18.2691H70.5958V19.5244C71.0303 18.7036 71.8511 18.2208 72.7684 18.2208C74.1685 18.1726 75.3754 19.3313 75.3754 20.7314C75.3754 20.7796 75.3754 20.8279 75.3754 20.8762ZM74.8927 20.8762C74.9409 19.7175 74.0236 18.7036 72.8649 18.6554C71.7062 18.6071 70.6924 19.5244 70.6441 20.6831C70.6441 20.7314 70.6441 20.8279 70.6441 20.8762C70.5958 22.0349 71.5131 23.0487 72.6718 23.097C73.8305 23.1453 74.8444 22.228 74.8927 21.0693C74.8927 21.021 74.8927 20.9245 74.8927 20.8762Z" fill="url(#paint3_linear_9_158)"/>
<path d="M76.3893 20.8762C76.3411 19.4278 77.4997 18.2208 78.9964 18.1726C80.4448 18.1243 81.6517 19.283 81.7 20.7796C81.7 20.8279 81.7 20.8279 81.7 20.8762C81.7483 22.3246 80.5896 23.5315 79.093 23.5798C77.6446 23.6281 76.4376 22.4694 76.3893 20.9727C76.3893 20.9245 76.3893 20.9245 76.3893 20.8762ZM81.1689 20.8762C81.2172 19.7175 80.2999 18.7036 79.1412 18.6554C77.9825 18.6071 76.9687 19.5244 76.9204 20.6831C76.9204 20.7314 76.9204 20.8279 76.9204 20.8762C76.8721 22.0349 77.7894 23.0487 78.9481 23.097C80.1068 23.1453 81.1207 22.228 81.1689 21.0693C81.1689 21.021 81.1689 20.9245 81.1689 20.8762Z" fill="url(#paint4_linear_9_158)"/>
<path d="M87.9763 20.4416V23.5315H87.4935V20.4899C87.4935 19.283 86.8659 18.6553 85.8037 18.6553C84.7416 18.607 83.8726 19.3795 83.776 20.3934C83.776 20.4899 83.776 20.5865 83.776 20.683V23.4832H83.2932V18.1725H83.776V19.3312C84.1622 18.5588 84.983 18.076 85.852 18.1243C87.1072 18.1725 87.9763 18.945 87.9763 20.4416Z" fill="url(#paint5_linear_9_158)"/>
<path d="M89.9075 16.5311C89.9075 16.2897 90.1006 16.0966 90.342 16.0966C90.5834 16.0966 90.7282 16.2897 90.7282 16.5311C90.7282 16.7725 90.5351 16.9173 90.2937 16.9173C90.1006 16.9656 89.9075 16.7725 89.9075 16.5311ZM90.0523 18.2209H90.5351V23.5315H90.0523V18.2209Z" fill="url(#paint6_linear_9_158)"/>
<path d="M97.97 20.8762C98.0183 22.2763 96.9562 23.4832 95.5078 23.5798C95.4595 23.5798 95.4113 23.5798 95.3147 23.5798C94.3974 23.6281 93.5767 23.097 93.1422 22.2763V23.5315H92.6594V16H93.1422V19.4278C93.5767 18.6553 94.3974 18.1726 95.3147 18.1726C96.7148 18.1243 97.9218 19.2347 97.9218 20.6831C97.97 20.7313 97.97 20.8279 97.97 20.8762ZM97.4873 20.8762C97.5355 19.7175 96.6182 18.7036 95.4595 18.6553C94.3008 18.6071 93.287 19.5244 93.2387 20.6831C93.2387 20.7313 93.2387 20.8279 93.2387 20.8762C93.1904 22.0349 94.1077 23.0487 95.2664 23.097C96.4251 23.1453 97.439 22.228 97.4873 21.0693C97.4873 21.021 97.4873 20.9245 97.4873 20.8762Z" fill="url(#paint7_linear_9_158)"/>
<path d="M99.5632 16H100.046V23.5315H99.5632V16Z" fill="url(#paint8_linear_9_158)"/>
<path d="M106.66 21.021H102.122C102.219 22.2762 103.281 23.1935 104.536 23.1452C105.115 23.097 105.646 22.8556 106.033 22.4211L106.322 22.759C105.839 23.3384 105.067 23.628 104.343 23.628C102.894 23.6763 101.687 22.6142 101.639 21.1658C101.639 21.0693 101.639 21.021 101.639 20.9244C101.543 19.5243 102.605 18.3174 104.005 18.2208C104.053 18.2208 104.101 18.2208 104.15 18.2208C105.55 18.2208 106.66 19.3312 106.66 20.683C106.66 20.7313 106.66 20.8279 106.66 20.8761C106.66 20.8761 106.66 20.9727 106.66 21.021ZM102.122 20.5865H106.177C106.177 19.476 105.26 18.5587 104.15 18.5587C103.039 18.5587 102.122 19.476 102.122 20.5865Z" fill="url(#paint9_linear_9_158)"/>
<path d="M115.302 21.021H110.764C110.86 22.2763 111.923 23.1936 113.178 23.1453C113.757 23.097 114.288 22.8556 114.674 22.4211L114.964 22.7591C114.481 23.3384 113.709 23.6281 112.985 23.6281C111.536 23.6764 110.329 22.6142 110.281 21.1659C110.281 21.0693 110.281 21.021 110.281 20.9245C110.185 19.5244 111.247 18.3174 112.647 18.2208C114.047 18.1243 115.254 19.1864 115.35 20.5865C115.35 20.6831 115.35 20.7796 115.35 20.8762C115.35 20.8762 115.302 20.9727 115.302 21.021ZM110.764 20.5865H114.819C114.819 19.4761 113.902 18.5588 112.792 18.5588C111.681 18.5588 110.764 19.4761 110.764 20.5865Z" fill="url(#paint10_linear_9_158)"/>
<path d="M121.627 20.4416V23.5315H121.144V20.4899C121.144 19.283 120.516 18.6553 119.454 18.6553C118.392 18.607 117.523 19.3795 117.426 20.3934C117.426 20.4899 117.426 20.5865 117.426 20.683V23.4832H116.944V18.1725H117.426V19.3312C117.813 18.5588 118.633 18.076 119.502 18.1243C120.758 18.1725 121.627 18.945 121.627 20.4416Z" fill="url(#paint11_linear_9_158)"/>
<path d="M130.8 21.021H126.261C126.358 22.2762 127.42 23.1935 128.675 23.1453C129.255 23.097 129.786 22.8556 130.172 22.4211L130.462 22.759C129.979 23.3384 129.207 23.6281 128.482 23.6281C127.034 23.6763 125.827 22.6142 125.779 21.1658C125.779 21.0693 125.779 21.021 125.779 20.9244C125.682 19.5243 126.744 18.3174 128.144 18.2691C129.544 18.1725 130.751 19.2347 130.8 20.6348C130.8 20.7313 130.8 20.8279 130.8 20.9244C130.8 20.8762 130.8 20.9727 130.8 21.021ZM126.261 20.5865H130.317C130.317 19.4761 129.4 18.5588 128.289 18.5588C127.179 18.5588 126.261 19.4761 126.261 20.5865Z" fill="url(#paint12_linear_9_158)"/>
<path d="M132.393 16H132.876V23.5315H132.393V16Z" fill="url(#paint13_linear_9_158)"/>
<path d="M62.1953 38.4962H56.1122L54.8569 41.3447H53.1672L58.3813 29.8543H60.0228L65.2369 41.3447H63.4989L62.1953 38.4962ZM61.616 37.1927L59.1538 31.5923L56.6915 37.241H61.616V37.1927Z" fill="url(#paint14_linear_9_158)"/>
<path d="M75.6651 37.0496C75.6651 39.7049 73.8305 41.4913 71.2717 41.4913C70.1131 41.5395 68.9544 41.0085 68.2302 40.0912V44.5811H66.637V32.7045H68.1336V34.1046C68.8578 33.139 70.0165 32.6079 71.2235 32.6562C73.5409 32.5596 75.5203 34.346 75.6169 36.7116C75.7134 36.7599 75.7134 36.9048 75.6651 37.0496ZM74.0719 37.0496C74.1202 35.4081 72.865 34.0563 71.2717 34.008C69.6303 33.9597 68.2785 35.215 68.2302 36.8082C68.2302 36.9048 68.2302 36.953 68.2302 37.0496C68.2302 38.8842 69.4854 40.1394 71.1752 40.1394C72.8167 40.0912 74.0719 38.8842 74.0719 37.0496Z" fill="url(#paint15_linear_9_158)"/>
<path d="M86.8659 37.0496C86.8659 39.7049 85.0313 41.4913 82.4725 41.4913C81.3138 41.5395 80.1551 41.0085 79.4309 40.0912V44.5811H77.8377V32.7045H79.3344V34.1046C80.0585 33.139 81.2172 32.6079 82.4242 32.6562C84.7416 32.5596 86.721 34.346 86.8176 36.7116C86.8659 36.7599 86.8659 36.9048 86.8659 37.0496ZM85.2727 37.0496C85.321 35.4081 84.0657 34.0563 82.4725 34.008C80.831 33.9597 79.4792 35.215 79.4309 36.8082C79.4309 36.9048 79.4309 36.953 79.4309 37.0496C79.4309 38.8842 80.6862 40.1394 82.3759 40.1394C84.0174 40.0912 85.2727 38.8842 85.2727 37.0496Z" fill="url(#paint16_linear_9_158)"/>
<path d="M92.6594 40.0912L93.287 38.7877C94.3491 39.6567 95.7009 40.1395 97.101 40.1395C99.0805 40.1395 99.9495 39.367 99.9495 38.3531C99.9495 35.553 92.9973 37.3393 92.9973 33.0425C92.9973 31.2561 94.3974 29.7595 97.3907 29.7595C98.6942 29.7595 99.9977 30.0974 101.06 30.7733L100.529 32.0769C99.6115 31.4975 98.5011 31.1596 97.3907 31.1596C95.4595 31.1596 94.5905 31.9803 94.5905 32.9942C94.5905 35.7944 101.543 34.0563 101.543 38.2566C101.543 39.9946 100.143 41.5396 97.101 41.5396C95.3147 41.5396 93.5767 40.9119 92.6594 40.0912Z" fill="url(#paint17_linear_9_158)"/>
<path d="M108.543 40.8637C108.012 41.2982 107.336 41.4913 106.66 41.4913C104.922 41.4913 103.908 40.5257 103.908 38.7877V34.0081H102.412V32.7045H103.908V30.8217H105.502V32.7045H108.012V34.0081H105.502V38.7394C105.502 39.6567 105.984 40.1878 106.853 40.1878C107.288 40.1878 107.722 40.0429 108.06 39.8015L108.543 40.8637Z" fill="url(#paint18_linear_9_158)"/>
<path d="M109.364 37.0496C109.364 34.4426 111.295 32.608 113.902 32.608C116.364 32.6563 118.296 34.684 118.247 37.1462C118.199 39.6084 116.171 41.5396 113.709 41.4913C111.295 41.443 109.364 39.4636 109.364 37.0496ZM116.847 37.0496C116.847 35.215 115.592 34.0081 113.902 34.0081C112.309 33.9598 111.005 35.215 110.957 36.8082C110.957 36.9048 110.957 37.0014 110.957 37.0496C110.957 38.8842 112.212 40.1395 113.902 40.1395C115.592 40.1395 116.847 38.8842 116.847 37.0496Z" fill="url(#paint19_linear_9_158)"/>
<path d="M125.296 32.608V34.1529C125.199 34.1529 125.054 34.1529 124.958 34.1529C123.268 34.1529 122.206 35.1668 122.206 37.0979V41.443H120.613V32.7528H122.109V34.2012C122.689 33.139 123.751 32.608 125.296 32.608Z" fill="url(#paint20_linear_9_158)"/>
<path d="M134.952 37.5807H127.903C128.096 39.1256 129.351 40.1395 131.041 40.1395C132.007 40.1878 132.924 39.8015 133.552 39.0774L134.421 40.0912C133.552 41.0568 132.296 41.5879 130.993 41.4913C128.193 41.4913 126.31 39.6567 126.31 37.0496C126.213 34.684 128.048 32.7045 130.414 32.608C130.51 32.608 130.607 32.608 130.703 32.608C133.214 32.608 135 34.3943 135 37.0979C135 37.2428 135 37.4359 134.952 37.5807ZM127.903 36.422H133.503C133.31 34.8771 131.958 33.7667 130.414 33.9598C129.062 34.1046 128.048 35.1185 127.903 36.422Z" fill="url(#paint21_linear_9_158)"/>
<path fill-rule="evenodd" clip-rule="evenodd" d="M38.0076 20.1037C38.9249 18.8485 40.3733 18.076 41.9182 17.9312C42.063 19.3795 41.5802 20.7796 40.6629 21.89C38.9249 23.966 36.9937 23.6281 36.9937 23.6281C36.9937 23.6281 36.5592 22.0349 38.0076 20.1037Z" fill="url(#paint22_linear_9_158)"/>
<path fill-rule="evenodd" clip-rule="evenodd" d="M37.38 24.4971C38.2007 24.4971 39.7939 23.3384 41.7733 23.3384C43.7045 23.2419 45.5391 24.2074 46.6012 25.8006C44.9115 26.7662 43.8976 28.5525 43.8976 30.4837C43.8976 32.6563 45.2012 34.6357 47.2289 35.5047C47.2289 35.5047 44.9115 42.0706 41.7251 42.0706C40.2767 42.0706 39.1663 41.1051 37.6214 41.1051C36.0764 41.1051 34.5315 42.1189 33.5177 42.1189C30.6209 42.1189 27 35.8909 27 30.8699C27 25.9455 30.0898 23.3867 32.9383 23.3867C34.9177 23.435 36.3661 24.4971 37.38 24.4971Z" fill="url(#paint23_linear_9_158)"/>
</g>
<defs>
<filter id="filter0_dd_9_158" x="0.0864258" y="0.264893" width="162.806" height="59.8234" filterUnits="userSpaceOnUse" color-interpolation-filters="sRGB">
<feFlood flood-opacity="0" result="BackgroundImageFix"/>
<feColorMatrix in="SourceAlpha" type="matrix" values="0 0 0 0 0 0 0 0 0 0 0 0 0 0 0 0 0 0 127 0" result="hardAlpha"/>
<feOffset dx="3" dy="3"/>
<feGaussianBlur stdDeviation="3"/>
<feComposite in2="hardAlpha" operator="out"/>
<feColorMatrix type="matrix" values="0 0 0 0 0 0 0 0 0 0 0 0 0 0 0 0 0 0 0.1 0"/>
<feBlend mode="normal" in2="BackgroundImageFix" result="effect1_dropShadow_9_158"/>
<feColorMatrix in="SourceAlpha" type="matrix" values="0 0 0 0 0 0 0 0 0 0 0 0 0 0 0 0 0 0 127 0" result="hardAlpha"/>
<feOffset dx="-3" dy="-3"/>
<feGaussianBlur stdDeviation="3"/>
<feComposite in2="hardAlpha" operator="out"/>
<feColorMatrix type="matrix" values="0 0 0 0 1 0 0 0 0 1 0 0 0 0 1 0 0 0 0.8 0"/>
<feBlend mode="normal" in2="effect1_dropShadow_9_158" result="effect2_dropShadow_9_158"/>
<feBlend mode="normal" in="SourceGraphic" in2="effect2_dropShadow_9_158" result="shape"/>
</filter>
<linearGradient id="paint0_linear_9_158" x1="27.8751" y1="12.4735" x2="134.947" y2="40.9218" gradientUnits="userSpaceOnUse">
<stop offset="0.00129474" stop-color="#1DA1F1"/>
<stop offset="1" stop-color="#32C9AC"/>
</linearGradient>
<linearGradient id="paint1_linear_9_158" x1="28.3517" y1="10.681" x2="135.422" y2="39.1287" gradientUnits="userSpaceOnUse">
<stop offset="0.00129474" stop-color="#1DA1F1"/>
<stop offset="1" stop-color="#32C9AC"/>
</linearGradient>
<linearGradient id="paint2_linear_9_158" x1="28.3427" y1="10.713" x2="135.415" y2="39.1613" gradientUnits="userSpaceOnUse">
<stop offset="0.00129474" stop-color="#1DA1F1"/>
<stop offset="1" stop-color="#32C9AC"/>
</linearGradient>
<linearGradient id="paint3_linear_9_158" x1="28.4353" y1="10.3652" x2="135.507" y2="38.8134" gradientUnits="userSpaceOnUse">
<stop offset="0.00129474" stop-color="#1DA1F1"/>
<stop offset="1" stop-color="#32C9AC"/>
</linearGradient>
<linearGradient id="paint4_linear_9_158" x1="29.1614" y1="7.63231" x2="136.233" y2="36.0806" gradientUnits="userSpaceOnUse">
<stop offset="0.00129474" stop-color="#1DA1F1"/>
<stop offset="1" stop-color="#32C9AC"/>
</linearGradient>
<linearGradient id="paint5_linear_9_158" x1="29.5423" y1="6.19834" x2="136.614" y2="34.6467" gradientUnits="userSpaceOnUse">
<stop offset="0.00129474" stop-color="#1DA1F1"/>
<stop offset="1" stop-color="#32C9AC"/>
</linearGradient>
<linearGradient id="paint6_linear_9_158" x1="30.1606" y1="3.87009" x2="137.233" y2="32.3187" gradientUnits="userSpaceOnUse">
<stop offset="0.00129474" stop-color="#1DA1F1"/>
<stop offset="1" stop-color="#32C9AC"/>
</linearGradient>
<linearGradient id="paint7_linear_9_158" x1="30.3573" y1="3.13114" x2="137.429" y2="31.5794" gradientUnits="userSpaceOnUse">
<stop offset="0.00129474" stop-color="#1DA1F1"/>
<stop offset="1" stop-color="#32C9AC"/>
</linearGradient>
<linearGradient id="paint8_linear_9_158" x1="30.8085" y1="1.43279" x2="137.88" y2="29.8811" gradientUnits="userSpaceOnUse">
<stop offset="0.00129474" stop-color="#1DA1F1"/>
<stop offset="1" stop-color="#32C9AC"/>
</linearGradient>
<linearGradient id="paint9_linear_9_158" x1="30.8204" y1="1.38727" x2="137.892" y2="29.8356" gradientUnits="userSpaceOnUse">
<stop offset="0.00129474" stop-color="#1DA1F1"/>
<stop offset="1" stop-color="#32C9AC"/>
</linearGradient>
<linearGradient id="paint10_linear_9_158" x1="31.3907" y1="-0.758388" x2="138.462" y2="27.6898" gradientUnits="userSpaceOnUse">
<stop offset="0.00129474" stop-color="#1DA1F1"/>
<stop offset="1" stop-color="#32C9AC"/>
</linearGradient>
<linearGradient id="paint11_linear_9_158" x1="31.7623" y1="-2.15749" x2="138.834" y2="26.2909" gradientUnits="userSpaceOnUse">
<stop offset="0.00129474" stop-color="#1DA1F1"/>
<stop offset="1" stop-color="#32C9AC"/>
</linearGradient>
<linearGradient id="paint12_linear_9_158" x1="32.4107" y1="-4.59819" x2="139.483" y2="23.8502" gradientUnits="userSpaceOnUse">
<stop offset="0.00129474" stop-color="#1DA1F1"/>
<stop offset="1" stop-color="#32C9AC"/>
</linearGradient>
<linearGradient id="paint13_linear_9_158" x1="32.9739" y1="-6.71679" x2="140.046" y2="21.7315" gradientUnits="userSpaceOnUse">
<stop offset="0.00129474" stop-color="#1DA1F1"/>
<stop offset="1" stop-color="#32C9AC"/>
</linearGradient>
<linearGradient id="paint14_linear_9_158" x1="24.0169" y1="26.9932" x2="131.089" y2="55.4415" gradientUnits="userSpaceOnUse">
<stop offset="0.00129474" stop-color="#1DA1F1"/>
<stop offset="1" stop-color="#32C9AC"/>
</linearGradient>
<linearGradient id="paint15_linear_9_158" x1="24.129" y1="26.5727" x2="131.201" y2="55.021" gradientUnits="userSpaceOnUse">
<stop offset="0.00129474" stop-color="#1DA1F1"/>
<stop offset="1" stop-color="#32C9AC"/>
</linearGradient>
<linearGradient id="paint16_linear_9_158" x1="24.8672" y1="23.7945" x2="131.939" y2="52.2428" gradientUnits="userSpaceOnUse">
<stop offset="0.00129474" stop-color="#1DA1F1"/>
<stop offset="1" stop-color="#32C9AC"/>
</linearGradient>
<linearGradient id="paint17_linear_9_158" x1="26.6948" y1="16.9165" x2="133.766" y2="45.3646" gradientUnits="userSpaceOnUse">
<stop offset="0.00129474" stop-color="#1DA1F1"/>
<stop offset="1" stop-color="#32C9AC"/>
</linearGradient>
<linearGradient id="paint18_linear_9_158" x1="27.1417" y1="15.2352" x2="134.213" y2="43.6833" gradientUnits="userSpaceOnUse">
<stop offset="0.00129474" stop-color="#1DA1F1"/>
<stop offset="1" stop-color="#32C9AC"/>
</linearGradient>
<linearGradient id="paint19_linear_9_158" x1="27.4428" y1="14.1002" x2="134.515" y2="42.5485" gradientUnits="userSpaceOnUse">
<stop offset="0.00129474" stop-color="#1DA1F1"/>
<stop offset="1" stop-color="#32C9AC"/>
</linearGradient>
<linearGradient id="paint20_linear_9_158" x1="28.0568" y1="11.7891" x2="135.129" y2="40.2374" gradientUnits="userSpaceOnUse">
<stop offset="0.00129474" stop-color="#1DA1F1"/>
<stop offset="1" stop-color="#32C9AC"/>
</linearGradient>
<linearGradient id="paint21_linear_9_158" x1="28.5624" y1="9.88668" x2="135.634" y2="38.3349" gradientUnits="userSpaceOnUse">
<stop offset="0.00129474" stop-color="#1DA1F1"/>
<stop offset="1" stop-color="#32C9AC"/>
</linearGradient>
<linearGradient id="paint22_linear_9_158" x1="26.5659" y1="17.401" x2="133.638" y2="45.8493" gradientUnits="userSpaceOnUse">
<stop offset="0.00129474" stop-color="#1DA1F1"/>
<stop offset="1" stop-color="#32C9AC"/>
</linearGradient>
<linearGradient id="paint23_linear_9_158" x1="23.5071" y1="28.9138" x2="130.579" y2="57.362" gradientUnits="userSpaceOnUse">
<stop offset="0.00129474" stop-color="#1DA1F1"/>
<stop offset="1" stop-color="#32C9AC"/>
</linearGradient>
</defs>
</svg>
