<svg width="163" height="61" viewBox="0 0 163 61" fill="none" xmlns="http://www.w3.org/2000/svg">
<g filter="url(#filter0_dd_9_152)">
<rect x="9" y="9.26489" width="144.806" height="41.8234" rx="11.5931" fill="#F2FBFC"/>
<g clip-path="url(#clip0_9_152)">
<path d="M52.372 16.4341H55.3144C57.678 16.4341 59.2698 17.9777 59.2698 20.1483C59.2698 22.3189 57.678 23.8624 55.3144 23.8624H52.372V16.4341ZM55.2662 23.3801C57.3886 23.3801 58.7392 22.0295 58.7392 20.1483C58.7392 18.2671 57.3886 16.9165 55.2662 16.9165H52.9026V23.3801H55.2662Z" fill="url(#paint0_linear_9_152)"/>
<path d="M60.8133 16.5306C60.8133 16.2894 61.0063 16.0965 61.2474 16.0965C61.4886 16.0965 61.6816 16.2894 61.6816 16.5306C61.6816 16.7718 61.4886 16.9647 61.2474 16.9647C60.958 16.9647 60.8133 16.7718 60.8133 16.5306ZM60.958 18.3153H61.4886V23.8624H60.958V18.3153Z" fill="url(#paint1_linear_9_152)"/>
<path d="M62.9357 23.1871L63.1768 22.753C63.7557 23.1871 64.431 23.4283 65.1545 23.4283C66.3122 23.4283 66.7945 22.9942 66.7945 22.3671C66.7945 20.7754 63.1286 21.933 63.1286 19.7624C63.1286 18.9424 63.8521 18.2671 65.251 18.2671C65.9263 18.2671 66.6016 18.46 67.1322 18.7977L66.891 19.2318C66.4086 18.8942 65.8298 18.7012 65.2027 18.7494C64.1416 18.7494 63.6592 19.1836 63.6592 19.8106C63.6592 21.4989 67.3251 20.293 67.3251 22.4154C67.3251 23.3319 66.5534 23.9107 65.1545 23.9107C64.3345 23.9107 63.5627 23.6695 62.9357 23.1871Z" fill="url(#paint2_linear_9_152)"/>
<path d="M74.3193 21.113C74.4158 22.6083 73.2581 23.8624 71.7628 23.9107C71.7146 23.9107 71.6181 23.9107 71.5699 23.9107C70.6534 23.9589 69.7852 23.4283 69.3028 22.6083V25.9366H68.7722V18.3153H69.3028V19.6177C69.7369 18.7494 70.6052 18.2671 71.5699 18.2671C73.0652 18.2188 74.2711 19.4247 74.3193 20.8718C74.3193 20.9683 74.3193 21.0165 74.3193 21.113ZM73.7887 21.113C73.837 19.8589 72.8723 18.8459 71.6664 18.7977C70.4122 18.7494 69.3993 19.7142 69.351 20.9201C69.351 20.9683 69.351 21.0648 69.351 21.113C69.3028 22.3671 70.2675 23.3801 71.4734 23.4283C72.7275 23.4766 73.7405 22.5118 73.7887 21.3059C73.7887 21.2577 73.7887 21.1612 73.7887 21.113Z" fill="url(#paint3_linear_9_152)"/>
<path d="M75.3805 21.113C75.3805 19.5694 76.5864 18.3153 78.13 18.3153C79.6735 18.3153 80.9276 19.5212 80.9276 21.0647C80.9276 21.113 80.9276 21.113 80.9276 21.1612C80.9276 22.7048 79.7218 23.9589 78.1782 23.9589C76.6347 23.9589 75.3805 22.753 75.3805 21.2095C75.3805 21.1612 75.3805 21.113 75.3805 21.113ZM80.3488 21.113C80.3971 19.8589 79.4323 18.8459 78.2264 18.7977C76.9723 18.7494 75.9594 19.7141 75.9111 20.92C75.9111 20.9683 75.9111 21.0647 75.9111 21.113C75.8629 22.3671 76.8276 23.3801 78.0335 23.4283C79.2876 23.4765 80.3006 22.5118 80.3488 21.3059C80.3488 21.2577 80.3488 21.1612 80.3488 21.113Z" fill="url(#paint4_linear_9_152)"/>
<path d="M87.4877 20.6306V23.8624H86.9571V20.6789C86.9571 19.4247 86.2818 18.7494 85.1724 18.7494C84.063 18.653 83.1465 19.5212 83.05 20.5824C83.05 20.6789 83.05 20.7753 83.05 20.8718V23.8142H82.5194V18.3153H83.05V19.5212C83.4841 18.7012 84.3524 18.2188 85.2689 18.2671C86.6195 18.2671 87.4877 19.0871 87.4877 20.6306Z" fill="url(#paint5_linear_9_152)"/>
<path d="M89.5136 16.5306C89.5136 16.2894 89.7066 16.0965 89.9477 16.0965C90.1889 16.0965 90.3819 16.2894 90.3819 16.5306C90.3819 16.7718 90.1889 16.9647 89.9477 16.9647C89.7066 16.9647 89.5136 16.7718 89.5136 16.5306ZM89.7066 18.3153H90.2372V23.8624H89.7066V18.3153Z" fill="url(#paint6_linear_9_152)"/>
<path d="M97.9549 21.113C98.0031 22.6083 96.8937 23.8624 95.3984 23.9107C95.3502 23.9107 95.2537 23.9107 95.2054 23.9107C94.2407 23.9589 93.3725 23.4283 92.9384 22.5601V23.8624H92.4078V16H92.9384V19.6177C93.3725 18.7977 94.2407 18.2671 95.2054 18.3153C96.7008 18.2671 97.9067 19.473 97.9549 20.9201C97.9549 20.9683 97.9549 21.0165 97.9549 21.113ZM97.4243 21.113C97.4725 19.8589 96.5078 18.8459 95.3019 18.7977C94.0478 18.7494 93.0348 19.7142 92.9866 20.9201C92.9866 20.9683 92.9866 21.0648 92.9866 21.113C92.9384 22.3671 93.9031 23.3801 95.109 23.4283C96.3631 23.4766 97.376 22.5118 97.4243 21.3059C97.4243 21.2577 97.4243 21.1612 97.4243 21.113Z" fill="url(#paint7_linear_9_152)"/>
<path d="M99.5949 16H100.126V23.8624H99.5949V16Z" fill="url(#paint8_linear_9_152)"/>
<path d="M107.071 21.2095H102.296C102.393 22.5119 103.502 23.5248 104.804 23.4283C105.431 23.3801 105.962 23.0907 106.396 22.6566L106.686 22.9942C106.155 23.573 105.383 23.9107 104.611 23.9107C103.116 24.0072 101.814 22.8495 101.765 21.3542C101.765 21.2577 101.765 21.2095 101.765 21.113C101.669 19.6659 102.778 18.3636 104.226 18.2671C105.673 18.1706 106.975 19.2801 107.071 20.7271C107.071 20.8236 107.071 20.9683 107.071 21.0648C107.071 21.113 107.071 21.1613 107.071 21.2095ZM102.296 20.8236H106.541C106.541 19.6659 105.576 18.7012 104.418 18.7012C103.261 18.7012 102.296 19.6177 102.296 20.8236Z" fill="url(#paint9_linear_9_152)"/>
<path d="M116.14 21.2095H111.364C111.461 22.5119 112.57 23.5248 113.873 23.4283C114.5 23.3801 115.03 23.0907 115.464 22.6566L115.754 22.9942C115.223 23.573 114.452 23.9107 113.68 23.9107C112.184 24.0072 110.882 22.8495 110.834 21.3542C110.834 21.2577 110.834 21.2095 110.834 21.113C110.737 19.6659 111.847 18.3636 113.294 18.2671C114.741 18.1706 116.043 19.2801 116.14 20.7271C116.14 20.8236 116.14 20.9683 116.14 21.0648C116.14 21.113 116.14 21.1613 116.14 21.2095ZM111.364 20.8236H115.609C115.609 19.6659 114.644 18.7012 113.487 18.7012C112.329 18.7012 111.364 19.6177 111.364 20.8236Z" fill="url(#paint10_linear_9_152)"/>
<path d="M122.748 20.6306V23.8624H122.217V20.6789C122.217 19.4247 121.542 18.7494 120.433 18.7494C119.323 18.653 118.407 19.5212 118.31 20.5824C118.31 20.6789 118.31 20.7753 118.31 20.8718V23.8142H117.78V18.3153H118.31V19.5212C118.745 18.7012 119.613 18.2188 120.529 18.2671C121.832 18.2671 122.748 19.0871 122.748 20.6306Z" fill="url(#paint11_linear_9_152)"/>
<path d="M59.318 35.7767H60.6686V39.5873C59.6074 40.4073 58.305 40.8415 56.9544 40.8415C53.9638 40.8415 51.745 38.7191 51.745 35.8249C51.745 32.9308 53.9638 30.8084 57.0027 30.8084C58.4015 30.7602 59.8004 31.2908 60.7651 32.3037L59.8968 33.172C59.125 32.4002 58.1121 32.0143 57.0509 32.0625C54.7838 32.0625 53.1438 33.6543 53.1438 35.8249C53.0956 37.8991 54.7838 39.5873 56.8097 39.5873C56.9062 39.5873 56.9544 39.5873 57.0509 39.5873C57.8709 39.5873 58.6427 39.3944 59.3662 38.9603L59.318 35.7767Z" fill="url(#paint12_linear_9_152)"/>
<path d="M62.4533 37.0308C62.4051 34.9084 64.0934 33.1237 66.264 33.1237C68.3863 33.0755 70.1711 34.7637 70.1711 36.9343C70.2193 39.0567 68.5311 40.8414 66.3604 40.8414H66.3122C64.2863 40.9379 62.5498 39.3461 62.4533 37.3202C62.4533 37.2237 62.4533 37.1273 62.4533 37.0308ZM68.8205 37.0308C68.8687 35.632 67.8075 34.4743 66.4087 34.4261C65.0098 34.3778 63.8522 35.439 63.8039 36.8378C63.8039 36.8861 63.8039 36.9826 63.8039 37.0308C63.7557 38.4296 64.8169 39.5873 66.1675 39.6355C67.5663 39.6838 68.724 38.6226 68.7722 37.272C68.8205 37.1755 68.8205 37.1273 68.8205 37.0308Z" fill="url(#paint13_linear_9_152)"/>
<path d="M71.3287 37.0308C71.2805 34.9084 72.9688 33.1237 75.1394 33.1237C77.2617 33.0755 79.0465 34.7637 79.0465 36.9343C79.0947 39.0567 77.4065 40.8414 75.2358 40.8414H75.1876C73.1617 40.9379 71.4252 39.3461 71.3287 37.3202C71.3287 37.2237 71.3287 37.1273 71.3287 37.0308ZM77.6959 37.0308C77.7441 35.632 76.6829 34.4743 75.2841 34.4261C73.8852 34.3778 72.7276 35.439 72.6793 36.8378C72.6793 36.8861 72.6793 36.9826 72.6793 37.0308C72.6311 38.4296 73.6923 39.5873 75.0429 39.6355C76.4417 39.6838 77.5994 38.6226 77.6476 37.272C77.6959 37.2237 77.6959 37.1273 77.6959 37.0308Z" fill="url(#paint14_linear_9_152)"/>
<path d="M88.0183 33.3167V39.732C88.0183 42.3368 86.6677 43.5427 84.1594 43.5427C82.8088 43.5427 81.41 43.1568 80.6382 42.4332L81.2653 41.4203C82.0853 42.0473 83.0983 42.385 84.1112 42.385C85.8477 42.385 86.6677 41.565 86.6677 39.8767V39.2979C85.9924 40.0697 85.0277 40.5038 84.0147 40.4556C81.8924 40.4556 80.2523 39.0085 80.2523 36.8379C80.2523 34.6673 81.8924 33.2684 84.0147 33.2684C85.0759 33.2202 86.0889 33.6543 86.7642 34.4743V33.3167H88.0183V33.3167ZM86.6677 36.8379C86.6677 35.3908 85.6065 34.4261 84.1112 34.4261C82.6159 34.4261 81.5547 35.3908 81.5547 36.8379C81.603 38.2367 82.8089 39.3461 84.2077 39.2497C85.5583 39.2014 86.6195 38.1402 86.6677 36.8379Z" fill="url(#paint15_linear_9_152)"/>
<path d="M90.5748 30.3743H91.9254V40.745H90.5748V30.3743Z" fill="url(#paint16_linear_9_152)"/>
<path d="M101.138 37.4649H95.109C95.2537 38.7673 96.3149 39.6356 97.8102 39.6356C98.6302 39.6838 99.402 39.3461 99.9326 38.7191L100.656 39.5873C99.9326 40.4073 98.8231 40.8414 97.7137 40.7932C95.3019 40.7932 93.7102 39.2014 93.7102 36.9826C93.6137 34.9567 95.2054 33.2684 97.1831 33.2202C97.2796 33.2202 97.3278 33.2202 97.4243 33.2202C99.5467 33.2202 101.09 34.7637 101.09 37.0308C101.187 37.1755 101.138 37.3685 101.138 37.4649ZM95.109 36.5002H99.8843C99.7396 35.1979 98.5337 34.2331 97.2314 34.3778C96.1219 34.5226 95.2537 35.3908 95.109 36.5002Z" fill="url(#paint17_linear_9_152)"/>
<path d="M114.452 37.0308C114.548 39.0085 113.053 40.6967 111.027 40.8414C110.93 40.8414 110.786 40.8414 110.689 40.8414C109.676 40.8897 108.712 40.4073 108.084 39.6355V43.4462H106.782V33.3166H108.084V34.4743C108.712 33.6543 109.676 33.1719 110.737 33.2202C112.715 33.1237 114.403 34.6672 114.5 36.6449C114.452 36.8379 114.452 36.9343 114.452 37.0308ZM113.101 37.0308C113.053 35.632 111.847 34.5708 110.496 34.6672C109.097 34.7155 108.036 35.9214 108.133 37.272C108.181 38.6226 109.29 39.6355 110.641 39.6355C111.992 39.6838 113.101 38.5743 113.149 37.2237C113.101 37.1755 113.101 37.1273 113.101 37.0308Z" fill="url(#paint18_linear_9_152)"/>
<path d="M116.333 30.3743H117.683V40.745H116.333V30.3743Z" fill="url(#paint19_linear_9_152)"/>
<path d="M126.125 36.2591V40.745H124.87V39.7803C124.436 40.4556 123.616 40.8415 122.459 40.8415C120.77 40.8415 119.709 39.925 119.709 38.6708C119.709 37.4649 120.481 36.5002 122.7 36.5002H124.822V36.2108C124.822 35.1014 124.147 34.4261 122.845 34.4261C121.976 34.4261 121.156 34.7155 120.481 35.2461L119.902 34.2331C120.77 33.6061 121.88 33.2684 122.989 33.2684C124.967 33.2684 126.125 34.2331 126.125 36.2591ZM124.774 38.4779V37.4649H122.7C121.349 37.4649 121.012 37.9955 121.012 38.6226C121.012 39.3461 121.639 39.8285 122.652 39.8285C123.52 39.8767 124.388 39.3461 124.774 38.4779Z" fill="url(#paint20_linear_9_152)"/>
<path d="M135 33.3167L131.382 41.4685C130.707 43.012 129.887 43.5426 128.729 43.5426C128.054 43.5426 127.331 43.3015 126.848 42.8673L127.427 41.8544C127.765 42.192 128.247 42.385 128.778 42.385C129.405 42.385 129.839 42.0956 130.176 41.2273L130.418 40.6967L127.138 33.3167H128.536L131.141 39.2497L133.698 33.3167H135Z" fill="url(#paint21_linear_9_152)"/>
<path d="M42.146 25.406L38.5766 28.9754L28.4471 18.8459C29.0741 18.6047 29.8459 18.6047 30.4247 18.9906L42.146 25.406Z" fill="url(#paint22_linear_9_152)"/>
<path d="M37.9013 29.699L27.6753 39.9249C27.2412 39.4908 27 38.912 27 38.2849V21.0647C27 20.4859 27.2412 19.9071 27.6271 19.473L37.9013 29.699Z" fill="url(#paint23_linear_9_152)"/>
<path d="M42.146 33.992L30.4247 40.3591C29.8459 40.6967 29.1224 40.745 28.4953 40.5038L38.5766 30.4225L42.146 33.992Z" fill="url(#paint24_linear_9_152)"/>
<path d="M46.2461 31.7731L43.0625 33.5096L39.2519 29.699L43.0625 25.8883L46.2461 27.6248C47.3555 28.2519 47.7896 29.6507 47.2108 30.7602C46.9696 31.2425 46.6802 31.5319 46.2461 31.7731Z" fill="url(#paint25_linear_9_152)"/>
</g>
</g>
<defs>
<filter id="filter0_dd_9_152" x="0" y="0.264893" width="162.806" height="59.8234" filterUnits="userSpaceOnUse" color-interpolation-filters="sRGB">
<feFlood flood-opacity="0" result="BackgroundImageFix"/>
<feColorMatrix in="SourceAlpha" type="matrix" values="0 0 0 0 0 0 0 0 0 0 0 0 0 0 0 0 0 0 127 0" result="hardAlpha"/>
<feOffset dx="3" dy="3"/>
<feGaussianBlur stdDeviation="3"/>
<feComposite in2="hardAlpha" operator="out"/>
<feColorMatrix type="matrix" values="0 0 0 0 0 0 0 0 0 0 0 0 0 0 0 0 0 0 0.1 0"/>
<feBlend mode="normal" in2="BackgroundImageFix" result="effect1_dropShadow_9_152"/>
<feColorMatrix in="SourceAlpha" type="matrix" values="0 0 0 0 0 0 0 0 0 0 0 0 0 0 0 0 0 0 127 0" result="hardAlpha"/>
<feOffset dx="-3" dy="-3"/>
<feGaussianBlur stdDeviation="3"/>
<feComposite in2="hardAlpha" operator="out"/>
<feColorMatrix type="matrix" values="0 0 0 0 1 0 0 0 0 1 0 0 0 0 1 0 0 0 0.8 0"/>
<feBlend mode="normal" in2="effect1_dropShadow_9_152" result="effect2_dropShadow_9_152"/>
<feBlend mode="normal" in="SourceGraphic" in2="effect2_dropShadow_9_152" result="shape"/>
</filter>
<linearGradient id="paint0_linear_9_152" x1="27.6636" y1="13.3849" x2="133.694" y2="40.4763" gradientUnits="userSpaceOnUse">
<stop stop-color="#1DA1F1"/>
<stop offset="1" stop-color="#32C9AC"/>
</linearGradient>
<linearGradient id="paint1_linear_9_152" x1="28.1289" y1="11.5649" x2="134.159" y2="38.656" gradientUnits="userSpaceOnUse">
<stop stop-color="#1DA1F1"/>
<stop offset="1" stop-color="#32C9AC"/>
</linearGradient>
<linearGradient id="paint2_linear_9_152" x1="28.1107" y1="11.635" x2="134.141" y2="38.7264" gradientUnits="userSpaceOnUse">
<stop stop-color="#1DA1F1"/>
<stop offset="1" stop-color="#32C9AC"/>
</linearGradient>
<linearGradient id="paint3_linear_9_152" x1="28.1905" y1="11.3229" x2="134.221" y2="38.4143" gradientUnits="userSpaceOnUse">
<stop stop-color="#1DA1F1"/>
<stop offset="1" stop-color="#32C9AC"/>
</linearGradient>
<linearGradient id="paint4_linear_9_152" x1="28.9067" y1="8.51962" x2="134.937" y2="35.6111" gradientUnits="userSpaceOnUse">
<stop stop-color="#1DA1F1"/>
<stop offset="1" stop-color="#32C9AC"/>
</linearGradient>
<linearGradient id="paint5_linear_9_152" x1="29.2769" y1="7.07101" x2="135.307" y2="34.1624" gradientUnits="userSpaceOnUse">
<stop stop-color="#1DA1F1"/>
<stop offset="1" stop-color="#32C9AC"/>
</linearGradient>
<linearGradient id="paint6_linear_9_152" x1="29.8895" y1="4.6748" x2="135.919" y2="31.7659" gradientUnits="userSpaceOnUse">
<stop stop-color="#1DA1F1"/>
<stop offset="1" stop-color="#32C9AC"/>
</linearGradient>
<linearGradient id="paint7_linear_9_152" x1="30.081" y1="3.92353" x2="136.111" y2="31.015" gradientUnits="userSpaceOnUse">
<stop stop-color="#1DA1F1"/>
<stop offset="1" stop-color="#32C9AC"/>
</linearGradient>
<linearGradient id="paint8_linear_9_152" x1="30.5175" y1="2.20644" x2="136.551" y2="29.2996" gradientUnits="userSpaceOnUse">
<stop stop-color="#1DA1F1"/>
<stop offset="1" stop-color="#32C9AC"/>
</linearGradient>
<linearGradient id="paint9_linear_9_152" x1="30.5221" y1="2.1973" x2="136.552" y2="29.2888" gradientUnits="userSpaceOnUse">
<stop stop-color="#1DA1F1"/>
<stop offset="1" stop-color="#32C9AC"/>
</linearGradient>
<linearGradient id="paint10_linear_9_152" x1="31.0774" y1="0.0239826" x2="137.108" y2="27.1154" gradientUnits="userSpaceOnUse">
<stop stop-color="#1DA1F1"/>
<stop offset="1" stop-color="#32C9AC"/>
</linearGradient>
<linearGradient id="paint11_linear_9_152" x1="31.4366" y1="-1.38165" x2="137.467" y2="25.7097" gradientUnits="userSpaceOnUse">
<stop stop-color="#1DA1F1"/>
<stop offset="1" stop-color="#32C9AC"/>
</linearGradient>
<linearGradient id="paint12_linear_9_152" x1="24.0736" y1="27.435" x2="130.104" y2="54.5265" gradientUnits="userSpaceOnUse">
<stop stop-color="#1DA1F1"/>
<stop offset="1" stop-color="#32C9AC"/>
</linearGradient>
<linearGradient id="paint13_linear_9_152" x1="24.3684" y1="26.2818" x2="130.399" y2="53.3732" gradientUnits="userSpaceOnUse">
<stop stop-color="#1DA1F1"/>
<stop offset="1" stop-color="#32C9AC"/>
</linearGradient>
<linearGradient id="paint14_linear_9_152" x1="24.9127" y1="24.1512" x2="130.943" y2="51.2427" gradientUnits="userSpaceOnUse">
<stop stop-color="#1DA1F1"/>
<stop offset="1" stop-color="#32C9AC"/>
</linearGradient>
<linearGradient id="paint15_linear_9_152" x1="25.2062" y1="23.0031" x2="131.236" y2="50.0945" gradientUnits="userSpaceOnUse">
<stop stop-color="#1DA1F1"/>
<stop offset="1" stop-color="#32C9AC"/>
</linearGradient>
<linearGradient id="paint16_linear_9_152" x1="26.2412" y1="18.9532" x2="132.271" y2="46.0444" gradientUnits="userSpaceOnUse">
<stop stop-color="#1DA1F1"/>
<stop offset="1" stop-color="#32C9AC"/>
</linearGradient>
<linearGradient id="paint17_linear_9_152" x1="26.272" y1="18.8316" x2="132.302" y2="45.923" gradientUnits="userSpaceOnUse">
<stop stop-color="#1DA1F1"/>
<stop offset="1" stop-color="#32C9AC"/>
</linearGradient>
<linearGradient id="paint18_linear_9_152" x1="26.6608" y1="17.3096" x2="132.691" y2="44.4011" gradientUnits="userSpaceOnUse">
<stop stop-color="#1DA1F1"/>
<stop offset="1" stop-color="#32C9AC"/>
</linearGradient>
<linearGradient id="paint19_linear_9_152" x1="27.8202" y1="12.7732" x2="133.85" y2="39.8645" gradientUnits="userSpaceOnUse">
<stop stop-color="#1DA1F1"/>
<stop offset="1" stop-color="#32C9AC"/>
</linearGradient>
<linearGradient id="paint20_linear_9_152" x1="27.8139" y1="12.7967" x2="133.844" y2="39.888" gradientUnits="userSpaceOnUse">
<stop stop-color="#1DA1F1"/>
<stop offset="1" stop-color="#32C9AC"/>
</linearGradient>
<linearGradient id="paint21_linear_9_152" x1="28.0284" y1="11.9566" x2="134.059" y2="39.0481" gradientUnits="userSpaceOnUse">
<stop stop-color="#1DA1F1"/>
<stop offset="1" stop-color="#32C9AC"/>
</linearGradient>
<linearGradient id="paint22_linear_9_152" x1="25.5428" y1="21.6852" x2="131.573" y2="48.7766" gradientUnits="userSpaceOnUse">
<stop stop-color="#1DA1F1"/>
<stop offset="1" stop-color="#32C9AC"/>
</linearGradient>
<linearGradient id="paint23_linear_9_152" x1="23.7453" y1="28.7203" x2="129.776" y2="55.8117" gradientUnits="userSpaceOnUse">
<stop stop-color="#1DA1F1"/>
<stop offset="1" stop-color="#32C9AC"/>
</linearGradient>
<linearGradient id="paint24_linear_9_152" x1="22.7274" y1="32.704" x2="128.758" y2="59.7955" gradientUnits="userSpaceOnUse">
<stop stop-color="#1DA1F1"/>
<stop offset="1" stop-color="#32C9AC"/>
</linearGradient>
<linearGradient id="paint25_linear_9_152" x1="24.6909" y1="25.0193" x2="130.721" y2="52.1108" gradientUnits="userSpaceOnUse">
<stop stop-color="#1DA1F1"/>
<stop offset="1" stop-color="#32C9AC"/>
</linearGradient>
<clipPath id="clip0_9_152">
<rect width="108" height="27.5467" fill="white" transform="translate(27 16)"/>
</clipPath>
</defs>
</svg>
