<svg width="16" height="16" viewBox="0 0 16 16" fill="none" xmlns="http://www.w3.org/2000/svg">
<path d="M3.67002 11.6228C4.29558 12.4861 5.09297 13.2098 6.01173 13.7478C6.27474 13.9014 6.54636 14.0396 6.82523 14.1618C7.85559 14.6144 8.97158 14.8374 10.0962 14.8152C11.2207 14.7931 12.3272 14.5264 13.339 14.0335C13.468 13.9684 13.6165 13.9539 13.7557 13.9927C13.8948 14.0315 14.0145 14.1209 14.0915 14.2434C14.139 14.3133 14.1707 14.3927 14.1845 14.4761C14.1984 14.5596 14.1939 14.645 14.1715 14.7265C14.1491 14.8081 14.1093 14.8837 14.0549 14.9483C14.0004 15.0129 13.9326 15.0648 13.8562 15.1004C12.6819 15.6716 11.3973 15.9782 10.0924 15.9989C8.78753 16.0195 7.49395 15.7537 6.30227 15.2199C6.02626 15.0975 5.75606 14.9576 5.48877 14.806C4.26069 14.0942 3.21796 13.1008 2.44587 11.9072C1.67378 10.7135 1.19425 9.35348 1.04649 7.93824C1.01514 7.63708 0.999626 7.33445 1.00001 7.03166C0.998381 5.71849 1.2837 4.42093 1.83586 3.23034C2.38802 2.03975 3.19361 0.985088 4.19589 0.140603C4.25944 0.0858789 4.33404 0.0455706 4.41456 0.0224659C4.49507 -0.000638833 4.57962 -0.0059972 4.6624 0.00673795C4.74518 0.0194731 4.82424 0.0499995 4.89416 0.0962483C4.96408 0.142497 5.02321 0.203367 5.0675 0.274682V0.274682C5.1475 0.394364 5.1805 0.539534 5.16011 0.682184C5.13972 0.824835 5.0674 0.954864 4.9571 1.04716C4.0952 1.77407 3.40116 2.68033 2.92306 3.70312C2.44496 4.72591 2.19425 5.84078 2.1883 6.97045C2.18494 7.27332 2.20046 7.57609 2.23478 7.87701C2.35101 8.93901 2.68538 9.96531 3.21679 10.8911V10.8911L3.67002 11.6228Z" fill="url(#paint0_linear_95_1058)"/>
<path d="M6.18919 2.01506L8.59772 5.7346C8.65762 5.82118 8.69301 5.92242 8.70012 6.02756C8.70723 6.13271 8.6858 6.23783 8.63811 6.33173C8.59042 6.42563 8.51826 6.50481 8.42929 6.56084C8.34032 6.61686 8.23788 6.64764 8.13287 6.6499L3.71383 6.88312C3.62746 6.88711 3.54125 6.87217 3.46121 6.83937C3.38116 6.80656 3.3092 6.75668 3.25031 6.69315C3.19142 6.62963 3.14702 6.55401 3.1202 6.47154C3.09338 6.38907 3.08478 6.30171 3.09499 6.21557C3.28625 4.55845 4.06598 3.02589 5.29143 1.89845C5.35413 1.83816 5.42949 1.79273 5.51198 1.76551C5.59448 1.73829 5.68201 1.72997 5.76813 1.74115C5.85425 1.75234 5.93678 1.78275 6.00965 1.83015C6.08251 1.87755 6.14386 1.94073 6.18919 2.01506Z" fill="url(#paint1_linear_95_1058)"/>
<path d="M8.72834 8.42212L6.72075 12.369C6.68261 12.4458 6.62806 12.5131 6.561 12.5663C6.49394 12.6195 6.41601 12.6572 6.33276 12.6767C6.24952 12.6962 6.16302 12.697 6.07942 12.6791C5.99583 12.6612 5.9172 12.625 5.84915 12.5731C4.52262 11.5784 3.59501 10.14 3.23433 8.51832C3.21247 8.4335 3.20994 8.34482 3.22693 8.25888C3.24392 8.17295 3.28 8.09197 3.33248 8.02195C3.38496 7.95193 3.4525 7.89467 3.53007 7.85444C3.60764 7.81421 3.69325 7.79204 3.78054 7.78957L8.19086 7.55928C8.29406 7.55426 8.39672 7.57696 8.48828 7.625C8.57983 7.67304 8.65695 7.74471 8.71171 7.83261C8.76647 7.92052 8.79688 8.02149 8.79981 8.12511C8.80273 8.22873 8.77806 8.33125 8.72834 8.42212Z" fill="url(#paint2_linear_95_1058)"/>
<path d="M10.5647 8.77494L12.9732 12.4945C13.0232 12.5665 13.0563 12.6489 13.0701 12.7356C13.0839 12.8223 13.078 12.911 13.0529 12.9951C13.0277 13.0791 12.984 13.1564 12.9249 13.2212C12.8659 13.2859 12.793 13.3364 12.7117 13.369C11.1891 14.0369 9.47689 14.1291 7.89176 13.6284C7.80782 13.6051 7.73017 13.5631 7.66458 13.5056C7.59898 13.4481 7.54711 13.3766 7.5128 13.2962C7.47849 13.2159 7.46262 13.1289 7.46636 13.0415C7.47009 12.9542 7.49335 12.8689 7.5344 12.7918L9.542 8.82449C9.58717 8.72934 9.65719 8.64826 9.74463 8.58987C9.83207 8.53147 9.93366 8.49795 10.0386 8.49287C10.1435 8.48778 10.2478 8.51132 10.3405 8.56099C10.4331 8.61066 10.5106 8.6846 10.5647 8.77494Z" fill="url(#paint3_linear_95_1058)"/>
<defs>
<linearGradient id="paint0_linear_95_1058" x1="14.0712" y1="14.7185" x2="4.43889" y2="0.0270283" gradientUnits="userSpaceOnUse">
<stop stop-color="#32C9AC"/>
<stop offset="1" stop-color="#1DA1F1"/>
</linearGradient>
<linearGradient id="paint1_linear_95_1058" x1="14.2167" y1="14.5729" x2="4.43885" y2="-0.118001" gradientUnits="userSpaceOnUse">
<stop stop-color="#32C9AC"/>
<stop offset="1" stop-color="#1DA1F1"/>
</linearGradient>
<linearGradient id="paint2_linear_95_1058" x1="14.3618" y1="14.7185" x2="4.58401" y2="0.0276431" gradientUnits="userSpaceOnUse">
<stop stop-color="#32C9AC"/>
<stop offset="1" stop-color="#1DA1F1"/>
</linearGradient>
<linearGradient id="paint3_linear_95_1058" x1="14.2167" y1="14.7186" x2="4.58442" y2="0.0271189" gradientUnits="userSpaceOnUse">
<stop stop-color="#32C9AC"/>
<stop offset="1" stop-color="#1DA1F1"/>
</linearGradient>
</defs>
</svg>
