<svg width="108" height="28" viewBox="0 0 108 28" fill="none" xmlns="http://www.w3.org/2000/svg">
<g clip-path="url(#clip0_9_169)">
<path d="M25.372 0.434113H28.3144C30.678 0.434113 32.2698 1.97766 32.2698 4.14827C32.2698 6.31888 30.678 7.86243 28.3144 7.86243H25.372V0.434113ZM28.2662 7.38007C30.3886 7.38007 31.7392 6.02947 31.7392 4.14827C31.7392 2.26707 30.3886 0.916471 28.2662 0.916471H25.9026V7.38007H28.2662Z" fill="url(#paint0_linear_9_169)"/>
<path d="M33.8133 0.530588C33.8133 0.289409 34.0063 0.0964661 34.2474 0.0964661C34.4886 0.0964661 34.6816 0.289409 34.6816 0.530588C34.6816 0.771767 34.4886 0.96471 34.2474 0.96471C33.958 0.96471 33.8133 0.771767 33.8133 0.530588ZM33.958 2.31531H34.4886V7.86243H33.958V2.31531Z" fill="url(#paint1_linear_9_169)"/>
<path d="M35.9357 7.18714L36.1768 6.75302C36.7557 7.18714 37.431 7.42832 38.1545 7.42832C39.3122 7.42832 39.7945 6.9942 39.7945 6.36713C39.7945 4.77535 36.1286 5.93301 36.1286 3.7624C36.1286 2.94239 36.8521 2.26709 38.251 2.26709C38.9263 2.26709 39.6016 2.46003 40.1322 2.79768L39.891 3.23181C39.4086 2.89416 38.8298 2.70121 38.2027 2.74945C37.1416 2.74945 36.6592 3.18357 36.6592 3.81064C36.6592 5.49889 40.3251 4.29299 40.3251 6.41537C40.3251 7.33185 39.5534 7.91068 38.1545 7.91068C37.3345 7.91068 36.5627 7.6695 35.9357 7.18714Z" fill="url(#paint2_linear_9_169)"/>
<path d="M47.3193 5.113C47.4158 6.60831 46.2581 7.86244 44.7628 7.91068C44.7146 7.91068 44.6181 7.91068 44.5699 7.91068C43.6534 7.95891 42.7852 7.42832 42.3028 6.60831V9.93658H41.7722V2.31532H42.3028V3.61769C42.7369 2.74944 43.6052 2.26708 44.5699 2.26708C46.0652 2.21885 47.2711 3.42474 47.3193 4.87182C47.3193 4.96829 47.3193 5.01653 47.3193 5.113ZM46.7887 5.113C46.837 3.85887 45.8723 2.84591 44.6664 2.79768C43.4122 2.74944 42.3993 3.71416 42.351 4.92005C42.351 4.96829 42.351 5.06476 42.351 5.113C42.3028 6.36713 43.2675 7.38008 44.4734 7.42832C45.7275 7.47655 46.7405 6.51184 46.7887 5.30594C46.7887 5.25771 46.7887 5.16123 46.7887 5.113Z" fill="url(#paint3_linear_9_169)"/>
<path d="M48.3805 5.11298C48.3805 3.56944 49.5864 2.31531 51.13 2.31531C52.6735 2.31531 53.9276 3.5212 53.9276 5.06475C53.9276 5.11299 53.9276 5.11298 53.9276 5.16122C53.9276 6.70477 52.7218 7.9589 51.1782 7.9589C49.6347 7.9589 48.3805 6.753 48.3805 5.20946C48.3805 5.16122 48.3805 5.11298 48.3805 5.11298ZM53.3488 5.11298C53.3971 3.85885 52.4323 2.8459 51.2264 2.79767C49.9723 2.74943 48.9594 3.71415 48.9111 4.92004C48.9111 4.96828 48.9111 5.06475 48.9111 5.11298C48.8629 6.36712 49.8276 7.38007 51.0335 7.4283C52.2876 7.47654 53.3006 6.51182 53.3488 5.30593C53.3488 5.25769 53.3488 5.16122 53.3488 5.11298Z" fill="url(#paint4_linear_9_169)"/>
<path d="M60.4877 4.63063V7.86243H59.9571V4.67886C59.9571 3.42473 59.2818 2.74943 58.1724 2.74943C57.063 2.65296 56.1465 3.5212 56.05 4.58239C56.05 4.67886 56.05 4.77533 56.05 4.87181V7.81419H55.5194V2.31531H56.05V3.5212C56.4841 2.70119 57.3524 2.21883 58.2689 2.26707C59.6195 2.26707 60.4877 3.08708 60.4877 4.63063Z" fill="url(#paint5_linear_9_169)"/>
<path d="M62.5136 0.530588C62.5136 0.289409 62.7066 0.0964661 62.9477 0.0964661C63.1889 0.0964661 63.3819 0.289409 63.3819 0.530588C63.3819 0.771767 63.1889 0.96471 62.9477 0.96471C62.7066 0.96471 62.5136 0.771767 62.5136 0.530588ZM62.7066 2.31531H63.2372V7.86243H62.7066V2.31531Z" fill="url(#paint6_linear_9_169)"/>
<path d="M70.9549 5.113C71.0031 6.60831 69.8937 7.86244 68.3984 7.91067C68.3502 7.91067 68.2537 7.91067 68.2054 7.91067C67.2407 7.95891 66.3725 7.42832 65.9384 6.56007V7.86244H65.4078V0H65.9384V3.61769C66.3725 2.79768 67.2407 2.26708 68.2054 2.31532C69.7008 2.26708 70.9067 3.47298 70.9549 4.92005C70.9549 4.96829 70.9549 5.01653 70.9549 5.113ZM70.4243 5.113C70.4725 3.85887 69.5078 2.84591 68.3019 2.79768C67.0478 2.74944 66.0348 3.71416 65.9866 4.92005C65.9866 4.96829 65.9866 5.06476 65.9866 5.113C65.9384 6.36713 66.9031 7.38008 68.109 7.42832C69.3631 7.47655 70.376 6.51184 70.4243 5.30594C70.4243 5.25771 70.4243 5.16123 70.4243 5.113Z" fill="url(#paint7_linear_9_169)"/>
<path d="M72.5949 0H73.1255V7.86244H72.5949V0Z" fill="url(#paint8_linear_9_169)"/>
<path d="M80.0714 5.20949H75.2961C75.3926 6.51186 76.502 7.52481 77.8044 7.42834C78.4314 7.3801 78.962 7.09069 79.3961 6.65657L79.6855 6.99422C79.155 7.57305 78.3832 7.9107 77.6114 7.9107C76.1161 8.00717 74.8137 6.84951 74.7655 5.3542C74.7655 5.25773 74.7655 5.20949 74.7655 5.11302C74.669 3.66594 75.7785 2.36358 77.2255 2.26711C78.6726 2.17063 79.975 3.28006 80.0714 4.72713C80.0714 4.8236 80.0714 4.96831 80.0714 5.06478C80.0714 5.11302 80.0714 5.16126 80.0714 5.20949ZM75.2961 4.82361H79.5408C79.5408 3.66595 78.5761 2.70123 77.4185 2.70123C76.2608 2.70123 75.2961 3.61771 75.2961 4.82361Z" fill="url(#paint9_linear_9_169)"/>
<path d="M89.1398 5.20949H84.3644C84.4609 6.51186 85.5703 7.52481 86.8727 7.42834C87.4998 7.3801 88.0304 7.09069 88.4645 6.65657L88.7539 6.99422C88.2233 7.57305 87.4515 7.9107 86.6797 7.9107C85.1844 8.00717 83.8821 6.84951 83.8338 5.3542C83.8338 5.25773 83.8338 5.20949 83.8338 5.11302C83.7374 3.66594 84.8468 2.36358 86.2939 2.26711C87.7409 2.17063 89.0433 3.28006 89.1398 4.72713C89.1398 4.8236 89.1398 4.96831 89.1398 5.06478C89.1398 5.11302 89.1398 5.16126 89.1398 5.20949ZM84.3644 4.82361H88.6092C88.6092 3.66595 87.6445 2.70123 86.4868 2.70123C85.3292 2.70123 84.3644 3.61771 84.3644 4.82361Z" fill="url(#paint10_linear_9_169)"/>
<path d="M95.7481 4.63063V7.86243H95.2175V4.67886C95.2175 3.42473 94.5422 2.74943 93.4328 2.74943C92.3233 2.65296 91.4069 3.5212 91.3104 4.58239C91.3104 4.67886 91.3104 4.77533 91.3104 4.87181V7.81419H90.7798V2.31531H91.3104V3.5212C91.7445 2.70119 92.6128 2.21883 93.5292 2.26707C94.8316 2.26707 95.7481 3.08708 95.7481 4.63063Z" fill="url(#paint11_linear_9_169)"/>
<path d="M32.318 19.7767H33.6686V23.5873C32.6074 24.4073 31.305 24.8415 29.9544 24.8415C26.9638 24.8415 24.745 22.7191 24.745 19.8249C24.745 16.9308 26.9638 14.8084 30.0027 14.8084C31.4015 14.7602 32.8004 15.2908 33.7651 16.3037L32.8968 17.172C32.125 16.4002 31.1121 16.0143 30.0509 16.0625C27.7838 16.0625 26.1438 17.6543 26.1438 19.8249C26.0956 21.8991 27.7838 23.5873 29.8097 23.5873C29.9062 23.5873 29.9544 23.5873 30.0509 23.5873C30.8709 23.5873 31.6427 23.3944 32.3662 22.9603L32.318 19.7767Z" fill="url(#paint12_linear_9_169)"/>
<path d="M35.4533 21.0308C35.4051 18.9084 37.0934 17.1237 39.264 17.1237C41.3863 17.0755 43.1711 18.7637 43.1711 20.9343C43.2193 23.0567 41.5311 24.8414 39.3604 24.8414H39.3122C37.2863 24.9379 35.5498 23.3461 35.4533 21.3202C35.4533 21.2237 35.4533 21.1273 35.4533 21.0308ZM41.8205 21.0308C41.8687 19.632 40.8075 18.4743 39.4087 18.4261C38.0098 18.3778 36.8522 19.439 36.8039 20.8378C36.8039 20.8861 36.8039 20.9826 36.8039 21.0308C36.7557 22.4296 37.8169 23.5873 39.1675 23.6355C40.5663 23.6838 41.724 22.6226 41.7722 21.272C41.8205 21.1755 41.8205 21.1273 41.8205 21.0308Z" fill="url(#paint13_linear_9_169)"/>
<path d="M44.3287 21.0308C44.2805 18.9084 45.9688 17.1237 48.1394 17.1237C50.2617 17.0755 52.0465 18.7637 52.0465 20.9343C52.0947 23.0567 50.4065 24.8414 48.2358 24.8414H48.1876C46.1617 24.9379 44.4252 23.3461 44.3287 21.3202C44.3287 21.2237 44.3287 21.1273 44.3287 21.0308ZM50.6959 21.0308C50.7441 19.632 49.6829 18.4743 48.2841 18.4261C46.8852 18.3778 45.7276 19.439 45.6793 20.8378C45.6793 20.8861 45.6793 20.9826 45.6793 21.0308C45.6311 22.4296 46.6923 23.5873 48.0429 23.6355C49.4417 23.6838 50.5994 22.6226 50.6476 21.272C50.6959 21.2237 50.6959 21.1273 50.6959 21.0308Z" fill="url(#paint14_linear_9_169)"/>
<path d="M61.0183 17.3167V23.732C61.0183 26.3368 59.6677 27.5427 57.1594 27.5427C55.8088 27.5427 54.41 27.1568 53.6382 26.4332L54.2653 25.4203C55.0853 26.0473 56.0983 26.385 57.1112 26.385C58.8477 26.385 59.6677 25.565 59.6677 23.8767V23.2979C58.9924 24.0697 58.0277 24.5038 57.0147 24.4556C54.8924 24.4556 53.2523 23.0085 53.2523 20.8379C53.2523 18.6673 54.8924 17.2684 57.0147 17.2684C58.0759 17.2202 59.0889 17.6543 59.7642 18.4743V17.3167H61.0183V17.3167ZM59.6677 20.8379C59.6677 19.3908 58.6065 18.4261 57.1112 18.4261C55.6159 18.4261 54.5547 19.3908 54.5547 20.8379C54.603 22.2367 55.8089 23.3461 57.2077 23.2497C58.5583 23.2014 59.6195 22.1402 59.6677 20.8379Z" fill="url(#paint15_linear_9_169)"/>
<path d="M63.5748 14.3743H64.9254V24.745H63.5748V14.3743Z" fill="url(#paint16_linear_9_169)"/>
<path d="M74.1385 21.4649H68.109C68.2537 22.7673 69.3149 23.6356 70.8102 23.6356C71.6302 23.6838 72.402 23.3461 72.9326 22.7191L73.6561 23.5873C72.9326 24.4073 71.8231 24.8414 70.7137 24.7932C68.3019 24.7932 66.7102 23.2014 66.7102 20.9826C66.6137 18.9567 68.2054 17.2684 70.1831 17.2202C70.2796 17.2202 70.3278 17.2202 70.4243 17.2202C72.5467 17.2202 74.0902 18.7637 74.0902 21.0308C74.1867 21.1755 74.1385 21.3685 74.1385 21.4649ZM68.109 20.5002H72.8843C72.7396 19.1979 71.5337 18.2331 70.2314 18.3778C69.1219 18.5226 68.2537 19.3908 68.109 20.5002Z" fill="url(#paint17_linear_9_169)"/>
<path d="M87.4516 21.0308C87.5481 23.0085 86.0527 24.6967 84.0268 24.8414C83.9303 24.8414 83.7856 24.8414 83.6892 24.8414C82.6762 24.8897 81.7115 24.4073 81.0844 23.6355V27.4462H79.7821V17.3166H81.0844V18.4743C81.7115 17.6543 82.6762 17.1719 83.7374 17.2202C85.7151 17.1237 87.4033 18.6672 87.4998 20.6449C87.4516 20.8379 87.4516 20.9343 87.4516 21.0308ZM86.101 21.0308C86.0527 19.632 84.8468 18.5708 83.4962 18.6672C82.0974 18.7155 81.0362 19.9214 81.1327 21.272C81.1809 22.6226 82.2903 23.6355 83.6409 23.6355C84.9915 23.6838 86.101 22.5743 86.1492 21.2237C86.101 21.1755 86.101 21.1273 86.101 21.0308Z" fill="url(#paint18_linear_9_169)"/>
<path d="M89.3327 14.3743H90.6833V24.745H89.3327V14.3743Z" fill="url(#paint19_linear_9_169)"/>
<path d="M99.1246 20.2591V24.745H97.8705V23.7803C97.4363 24.4556 96.6163 24.8415 95.4587 24.8415C93.7704 24.8415 92.7092 23.925 92.7092 22.6708C92.7092 21.4649 93.481 20.5002 95.6999 20.5002H97.8222V20.2108C97.8222 19.1014 97.1469 18.4261 95.8446 18.4261C94.9763 18.4261 94.1563 18.7155 93.481 19.2461L92.9022 18.2331C93.7704 17.6061 94.8798 17.2684 95.9893 17.2684C97.9669 17.2684 99.1246 18.2331 99.1246 20.2591ZM97.774 22.4779V21.4649H95.6999C94.3493 21.4649 94.0116 21.9955 94.0116 22.6226C94.0116 23.3461 94.6387 23.8285 95.6516 23.8285C96.5199 23.8767 97.3881 23.3461 97.774 22.4779Z" fill="url(#paint20_linear_9_169)"/>
<path d="M108 17.3167L104.382 25.4685C103.707 27.012 102.887 27.5426 101.729 27.5426C101.054 27.5426 100.331 27.3015 99.8481 26.8673L100.427 25.8544C100.765 26.192 101.247 26.385 101.778 26.385C102.405 26.385 102.839 26.0956 103.176 25.2273L103.418 24.6967L100.138 17.3167H101.536L104.141 23.2497L106.698 17.3167H108Z" fill="url(#paint21_linear_9_169)"/>
<path d="M15.146 9.40599L11.5766 12.9754L1.44705 2.84592C2.07412 2.60474 2.84589 2.60474 3.42472 2.99062L15.146 9.40599Z" fill="url(#paint22_linear_9_169)"/>
<path d="M10.9013 13.699L0.675299 23.9249C0.241176 23.4908 0 22.912 0 22.2849V5.06474C0 4.48591 0.241173 3.90708 0.62706 3.47296L10.9013 13.699Z" fill="url(#paint23_linear_9_169)"/>
<path d="M15.146 17.992L3.42473 24.3591C2.8459 24.6967 2.12237 24.745 1.4953 24.5038L11.5766 14.4225L15.146 17.992Z" fill="url(#paint24_linear_9_169)"/>
<path d="M19.2461 15.7731L16.0625 17.5096L12.2519 13.699L16.0625 9.88834L19.2461 11.6248C20.3555 12.2519 20.7896 13.6507 20.2108 14.7602C19.9696 15.2425 19.6802 15.5319 19.2461 15.7731Z" fill="url(#paint25_linear_9_169)"/>
</g>
<defs>
<linearGradient id="paint0_linear_9_169" x1="0.663598" y1="-2.61507" x2="106.694" y2="24.4763" gradientUnits="userSpaceOnUse">
<stop stop-color="#1DA1F1"/>
<stop offset="1" stop-color="#32C9AC"/>
</linearGradient>
<linearGradient id="paint1_linear_9_169" x1="1.12886" y1="-4.43515" x2="107.159" y2="22.656" gradientUnits="userSpaceOnUse">
<stop stop-color="#1DA1F1"/>
<stop offset="1" stop-color="#32C9AC"/>
</linearGradient>
<linearGradient id="paint2_linear_9_169" x1="1.11069" y1="-4.36505" x2="107.141" y2="22.7264" gradientUnits="userSpaceOnUse">
<stop stop-color="#1DA1F1"/>
<stop offset="1" stop-color="#32C9AC"/>
</linearGradient>
<linearGradient id="paint3_linear_9_169" x1="1.19046" y1="-4.67714" x2="107.221" y2="22.4143" gradientUnits="userSpaceOnUse">
<stop stop-color="#1DA1F1"/>
<stop offset="1" stop-color="#32C9AC"/>
</linearGradient>
<linearGradient id="paint4_linear_9_169" x1="1.90671" y1="-7.48038" x2="107.937" y2="19.6111" gradientUnits="userSpaceOnUse">
<stop stop-color="#1DA1F1"/>
<stop offset="1" stop-color="#32C9AC"/>
</linearGradient>
<linearGradient id="paint5_linear_9_169" x1="2.2769" y1="-8.92899" x2="108.307" y2="18.1624" gradientUnits="userSpaceOnUse">
<stop stop-color="#1DA1F1"/>
<stop offset="1" stop-color="#32C9AC"/>
</linearGradient>
<linearGradient id="paint6_linear_9_169" x1="2.8895" y1="-11.3252" x2="108.919" y2="15.7659" gradientUnits="userSpaceOnUse">
<stop stop-color="#1DA1F1"/>
<stop offset="1" stop-color="#32C9AC"/>
</linearGradient>
<linearGradient id="paint7_linear_9_169" x1="3.08102" y1="-12.0765" x2="109.111" y2="15.015" gradientUnits="userSpaceOnUse">
<stop stop-color="#1DA1F1"/>
<stop offset="1" stop-color="#32C9AC"/>
</linearGradient>
<linearGradient id="paint8_linear_9_169" x1="3.51747" y1="-13.7936" x2="109.551" y2="13.2996" gradientUnits="userSpaceOnUse">
<stop stop-color="#1DA1F1"/>
<stop offset="1" stop-color="#32C9AC"/>
</linearGradient>
<linearGradient id="paint9_linear_9_169" x1="3.52205" y1="-13.8027" x2="109.552" y2="13.2888" gradientUnits="userSpaceOnUse">
<stop stop-color="#1DA1F1"/>
<stop offset="1" stop-color="#32C9AC"/>
</linearGradient>
<linearGradient id="paint10_linear_9_169" x1="4.07736" y1="-15.976" x2="110.108" y2="11.1154" gradientUnits="userSpaceOnUse">
<stop stop-color="#1DA1F1"/>
<stop offset="1" stop-color="#32C9AC"/>
</linearGradient>
<linearGradient id="paint11_linear_9_169" x1="4.43661" y1="-17.3816" x2="110.467" y2="9.70975" gradientUnits="userSpaceOnUse">
<stop stop-color="#1DA1F1"/>
<stop offset="1" stop-color="#32C9AC"/>
</linearGradient>
<linearGradient id="paint12_linear_9_169" x1="-2.92635" y1="11.435" x2="103.104" y2="38.5265" gradientUnits="userSpaceOnUse">
<stop stop-color="#1DA1F1"/>
<stop offset="1" stop-color="#32C9AC"/>
</linearGradient>
<linearGradient id="paint13_linear_9_169" x1="-2.63164" y1="10.2818" x2="103.399" y2="37.3732" gradientUnits="userSpaceOnUse">
<stop stop-color="#1DA1F1"/>
<stop offset="1" stop-color="#32C9AC"/>
</linearGradient>
<linearGradient id="paint14_linear_9_169" x1="-2.08729" y1="8.1512" x2="103.943" y2="35.2427" gradientUnits="userSpaceOnUse">
<stop stop-color="#1DA1F1"/>
<stop offset="1" stop-color="#32C9AC"/>
</linearGradient>
<linearGradient id="paint15_linear_9_169" x1="-1.79385" y1="7.00308" x2="104.236" y2="34.0945" gradientUnits="userSpaceOnUse">
<stop stop-color="#1DA1F1"/>
<stop offset="1" stop-color="#32C9AC"/>
</linearGradient>
<linearGradient id="paint16_linear_9_169" x1="-0.75884" y1="2.95319" x2="105.271" y2="30.0444" gradientUnits="userSpaceOnUse">
<stop stop-color="#1DA1F1"/>
<stop offset="1" stop-color="#32C9AC"/>
</linearGradient>
<linearGradient id="paint17_linear_9_169" x1="-0.72799" y1="2.83163" x2="105.302" y2="29.923" gradientUnits="userSpaceOnUse">
<stop stop-color="#1DA1F1"/>
<stop offset="1" stop-color="#32C9AC"/>
</linearGradient>
<linearGradient id="paint18_linear_9_169" x1="-0.339169" y1="1.30963" x2="105.691" y2="28.4011" gradientUnits="userSpaceOnUse">
<stop stop-color="#1DA1F1"/>
<stop offset="1" stop-color="#32C9AC"/>
</linearGradient>
<linearGradient id="paint19_linear_9_169" x1="0.820239" y1="-3.22679" x2="106.85" y2="23.8645" gradientUnits="userSpaceOnUse">
<stop stop-color="#1DA1F1"/>
<stop offset="1" stop-color="#32C9AC"/>
</linearGradient>
<linearGradient id="paint20_linear_9_169" x1="0.813942" y1="-3.20334" x2="106.844" y2="23.888" gradientUnits="userSpaceOnUse">
<stop stop-color="#1DA1F1"/>
<stop offset="1" stop-color="#32C9AC"/>
</linearGradient>
<linearGradient id="paint21_linear_9_169" x1="1.02839" y1="-4.04338" x2="107.059" y2="23.0481" gradientUnits="userSpaceOnUse">
<stop stop-color="#1DA1F1"/>
<stop offset="1" stop-color="#32C9AC"/>
</linearGradient>
<linearGradient id="paint22_linear_9_169" x1="-1.45723" y1="5.68518" x2="104.573" y2="32.7766" gradientUnits="userSpaceOnUse">
<stop stop-color="#1DA1F1"/>
<stop offset="1" stop-color="#32C9AC"/>
</linearGradient>
<linearGradient id="paint23_linear_9_169" x1="-3.25471" y1="12.7203" x2="102.776" y2="39.8117" gradientUnits="userSpaceOnUse">
<stop stop-color="#1DA1F1"/>
<stop offset="1" stop-color="#32C9AC"/>
</linearGradient>
<linearGradient id="paint24_linear_9_169" x1="-4.27259" y1="16.704" x2="101.758" y2="43.7955" gradientUnits="userSpaceOnUse">
<stop stop-color="#1DA1F1"/>
<stop offset="1" stop-color="#32C9AC"/>
</linearGradient>
<linearGradient id="paint25_linear_9_169" x1="-2.3091" y1="9.01932" x2="103.721" y2="36.1108" gradientUnits="userSpaceOnUse">
<stop stop-color="#1DA1F1"/>
<stop offset="1" stop-color="#32C9AC"/>
</linearGradient>
<clipPath id="clip0_9_169">
<rect width="108" height="27.5467" fill="white"/>
</clipPath>
</defs>
</svg>
