<svg width="24" height="25" viewBox="0 0 24 25" fill="none" xmlns="http://www.w3.org/2000/svg">
<path d="M23.939 7.09295C23.9195 6.09792 23.7307 5.11347 23.3807 4.18178C23.0717 3.38422 22.5997 2.65989 21.9947 2.05511C21.3898 1.45033 20.6653 0.978404 19.8676 0.669519C18.9358 0.320446 17.9515 0.132012 16.9566 0.112243C15.6751 0.0512764 15.2635 0.0369873 12.0048 0.0369873C8.74607 0.0369873 8.33826 0.0512764 7.05765 0.10748C6.06243 0.126754 5.07776 0.315202 4.14578 0.664756C3.34285 0.965956 2.61586 1.43976 2.0162 2.05271C1.40702 2.65245 0.935304 3.37724 0.633635 4.17702C0.284277 5.10822 0.0954782 6.09194 0.0752739 7.08628C0.0142925 8.37231 0 8.78002 0 12.0398C0 15.2997 0.0142925 15.7064 0.0705098 16.9858C0.0899449 17.9808 0.278765 18.9653 0.628871 19.897C0.937784 20.6943 1.4097 21.4184 2.01446 22.023C2.61922 22.6276 3.3435 23.0994 4.14102 23.4083C5.07305 23.7578 6.05766 23.9465 7.05288 23.9665C8.33254 24.0227 8.74131 24.037 12 24.037C15.2587 24.037 15.6665 24.0227 16.9471 23.9665C17.9424 23.9471 18.9271 23.7583 19.859 23.4083C20.6567 23.0998 21.3812 22.6282 21.986 22.0235C22.5909 21.4188 23.0626 20.6945 23.3711 19.897C23.7206 18.9651 23.9094 17.9808 23.9295 16.9858C23.9857 15.7055 24 15.2978 24 12.0398C24 8.78193 23.9952 8.37231 23.939 7.09295ZM21.7732 16.8915C21.7655 17.6521 21.626 18.4057 21.3606 19.1187C21.1606 19.6363 20.8545 20.1064 20.462 20.4989C20.0695 20.8913 19.5992 21.1973 19.0815 21.3973C18.3682 21.6621 17.6145 21.8016 16.8537 21.8098C15.5874 21.866 15.2082 21.8803 12.0048 21.8803C8.80133 21.8803 8.41734 21.866 7.15579 21.8098C6.39493 21.8022 5.64117 21.6626 4.92806 21.3973C4.40703 21.2062 3.93578 20.9001 3.54931 20.5019C3.15198 20.1147 2.846 19.6438 2.65364 19.1234C2.39099 18.4106 2.25335 17.6578 2.24678 16.8981C2.19057 15.6321 2.17627 15.253 2.17627 12.0503C2.17627 8.84766 2.19057 8.46376 2.24678 7.2025C2.25414 6.44119 2.39374 5.68694 2.65936 4.9734C2.85051 4.45133 3.1585 3.97984 3.55979 3.59498C3.94717 3.19943 4.41784 2.89516 4.93759 2.70429C5.65087 2.43958 6.40452 2.30004 7.16532 2.29181C8.43354 2.22799 8.81467 2.21655 12.0143 2.21655C15.2139 2.21655 15.6017 2.23084 16.8633 2.28705C17.6241 2.29472 18.3779 2.43428 19.091 2.69953C19.6121 2.89059 20.0833 3.19666 20.4697 3.59498C20.8671 3.98216 21.1731 4.45306 21.3654 4.9734C21.6286 5.68679 21.7665 6.44026 21.7732 7.2006C21.8294 8.46661 21.8437 8.84575 21.8437 12.0484C21.8437 15.2511 21.8333 15.6255 21.7732 16.8915Z" fill="#1DA1F1"/>
<path d="M12.0048 5.87366C10.7852 5.87366 9.59288 6.23524 8.57876 6.91269C7.56465 7.59014 6.77424 8.55303 6.30749 9.67958C5.84075 10.8061 5.71862 12.0458 5.95657 13.2417C6.19451 14.4377 6.78184 15.5362 7.64428 16.3984C8.50671 17.2607 9.60552 17.8479 10.8017 18.0857C11.998 18.3236 13.2379 18.2015 14.3647 17.7349C15.4916 17.2683 16.4547 16.4781 17.1323 15.4642C17.8099 14.4503 18.1716 13.2583 18.1716 12.0389C18.1713 10.4039 17.5215 8.83586 16.3651 7.6797C15.2087 6.52354 13.6403 5.87391 12.0048 5.87366ZM12.0048 16.038C11.2133 16.038 10.4396 15.8033 9.78148 15.3637C9.12337 14.9241 8.61044 14.2992 8.30754 13.5681C8.00465 12.837 7.9254 12.0326 8.07982 11.2565C8.23423 10.4804 8.61538 9.76747 9.17505 9.20793C9.73473 8.64839 10.4478 8.26733 11.2241 8.11295C12.0004 7.95857 12.805 8.03781 13.5363 8.34063C14.2675 8.64345 14.8926 9.15627 15.3323 9.81423C15.772 10.4722 16.0067 11.2457 16.0067 12.037C16.0067 13.0981 15.5851 14.1158 14.8346 14.8661C14.0841 15.6165 13.0662 16.038 12.0048 16.038Z" fill="#1DA1F1"/>
<path d="M19.8535 5.6298C19.8533 5.91444 19.7687 6.19264 19.6105 6.42922C19.4522 6.6658 19.2273 6.85015 18.9643 6.95894C18.7013 7.06774 18.4119 7.09611 18.1327 7.04046C17.8536 6.98481 17.5972 6.84765 17.396 6.64631C17.1948 6.44497 17.0578 6.18849 17.0023 5.9093C16.9469 5.63011 16.9754 5.34075 17.0844 5.07779C17.1934 4.81483 17.3778 4.59009 17.6145 4.43197C17.8512 4.27385 18.1295 4.18945 18.4141 4.18945C18.6032 4.18945 18.7905 4.22671 18.9652 4.29911C19.1399 4.37151 19.2986 4.47762 19.4322 4.61138C19.5659 4.74514 19.6719 4.90393 19.7442 5.07867C19.8165 5.25342 19.8536 5.44069 19.8535 5.6298V5.6298Z" fill="#1DA1F1"/>
</svg>
