<svg width="131" height="56" viewBox="0 0 131 56" fill="none" xmlns="http://www.w3.org/2000/svg">
<g clip-path="url(#clip0_10_660)">
<path d="M113.663 27.8317C114.179 27.8244 114.674 27.6202 115.046 27.2604C115.252 27.0761 115.417 26.8497 115.529 26.5963C115.641 26.343 115.698 26.0685 115.696 25.7913C115.696 24.0963 115.196 22.4394 114.257 21.0301C113.318 19.6208 111.984 18.5224 110.424 17.8738C108.863 17.2252 107.146 17.0554 105.489 17.3861C103.832 17.7168 102.31 18.533 101.115 19.7315C99.9207 20.93 99.1072 22.457 98.7776 24.1194C98.448 25.7818 98.6172 27.5049 99.2637 29.0708C99.9102 30.6368 101.005 31.9752 102.41 32.9169C103.814 33.8586 105.466 34.3612 107.155 34.3612H112.412C112.93 34.3612 113.426 34.1548 113.793 33.7874C114.159 33.4201 114.364 32.9218 114.364 32.4023C114.364 31.8828 114.159 31.3846 113.793 31.0173C113.426 30.6499 112.93 30.4435 112.412 30.4435H107.155C106.369 30.4445 105.595 30.2434 104.908 29.8594C104.221 29.4755 103.643 28.9214 103.23 28.25L102.894 27.7093H103.494L113.663 27.8317ZM103.21 23.3427C103.629 22.6921 104.205 22.1573 104.883 21.7869C105.562 21.4166 106.322 21.2226 107.094 21.2226C107.866 21.2226 108.626 21.4166 109.305 21.7869C109.983 22.1573 110.559 22.6921 110.978 23.3427L111.334 23.8835H110.683H103.494H102.854L103.21 23.3427Z" fill="#9E9E9E"/>
<path d="M131 13.3037V32.4431C131 33.0249 130.77 33.5828 130.36 33.9941C129.95 34.4055 129.394 34.6366 128.814 34.6366C128.234 34.6366 127.678 34.4055 127.268 33.9941C126.858 33.5828 126.628 33.0249 126.628 32.4431V13.3037C126.628 12.722 126.858 12.1641 127.268 11.7527C127.678 11.3414 128.234 11.1102 128.814 11.1102C129.394 11.1102 129.95 11.3414 130.36 11.7527C130.77 12.1641 131 12.722 131 13.3037V13.3037Z" fill="#9E9E9E"/>
<path d="M123.231 13.3037V32.4431C123.231 33.0249 123.001 33.5828 122.591 33.9941C122.181 34.4055 121.625 34.6366 121.045 34.6366C120.465 34.6366 119.909 34.4055 119.499 33.9941C119.089 33.5828 118.859 33.0249 118.859 32.4431V13.3037C118.859 12.722 119.089 12.1641 119.499 11.7527C119.909 11.3414 120.465 11.1102 121.045 11.1102C121.625 11.1102 122.181 11.3414 122.591 11.7527C123.001 12.1641 123.231 12.722 123.231 13.3037Z" fill="#9E9E9E"/>
<path d="M96.3765 30.7596C96.5799 30.9629 96.7413 31.2046 96.8513 31.4707C96.9612 31.7369 97.0176 32.0223 97.0171 32.3104C97.0171 32.8921 96.7867 33.45 96.3767 33.8614C95.9668 34.2728 95.4107 34.5038 94.8309 34.5038C94.2487 34.5009 93.6906 34.2703 93.2751 33.8611L88.5773 29.1477L88.3332 28.9028L88.0892 29.1477L83.3812 33.8611C83.1964 34.1198 82.9577 34.335 82.6817 34.4919C82.4057 34.6487 82.099 34.7434 81.7828 34.7694C81.4667 34.7954 81.1487 34.7521 80.8509 34.6424C80.5531 34.5327 80.2827 34.3594 80.0584 34.1343C79.8341 33.9093 79.6613 33.6379 79.552 33.3391C79.4427 33.0404 79.3994 32.7213 79.4254 32.4041C79.4513 32.0869 79.5457 31.7792 79.702 31.5023C79.8583 31.2253 80.0728 30.9858 80.3307 30.8004L85.0387 26.087L85.1912 25.7912L84.9472 25.5463L80.2392 20.8329C79.9813 20.6475 79.7668 20.408 79.6105 20.131C79.4542 19.8541 79.3597 19.5464 79.3338 19.2292C79.3079 18.912 79.3511 18.5929 79.4605 18.2942C79.5698 17.9954 79.7426 17.7241 79.9669 17.499C80.1912 17.274 80.4616 17.1006 80.7594 16.9909C81.0572 16.8812 81.3752 16.8379 81.6913 16.8639C82.0075 16.8899 82.3142 16.9846 82.5902 17.1414C82.8662 17.2983 83.1049 17.5135 83.2897 17.7722L87.9977 22.4959L88.2417 22.7407L88.4857 22.4959L93.1836 17.7722C93.6038 17.4488 94.1265 17.2886 94.6551 17.3212C95.1838 17.3538 95.6829 17.577 96.0606 17.9496C96.4382 18.3223 96.6689 18.8194 96.7101 19.3492C96.7513 19.879 96.6003 20.4059 96.285 20.8329L91.577 25.5463L91.3329 25.7912L91.577 26.0462L96.3765 30.7596Z" fill="#9E9E9E"/>
<path d="M77.453 19.9658L73.0806 33.1164V33.1674L71.0978 39.8601C70.963 40.3137 70.6868 40.7121 70.3098 40.9967C69.9328 41.2813 69.4748 41.4372 69.003 41.4415C68.7888 41.441 68.5761 41.4065 68.3726 41.3394C68.0978 41.2576 67.8418 41.1222 67.6194 40.9408C67.3969 40.7595 67.2124 40.5358 67.0763 40.2827C66.9402 40.0296 66.8554 39.752 66.8265 39.4659C66.7977 39.1797 66.8255 38.8908 66.9083 38.6155L68.6472 32.7185V32.5961L68.5963 32.4737L63.085 20.1188C62.8477 19.5871 62.8306 18.9826 63.0375 18.4383C63.2444 17.894 63.6584 17.4544 64.1883 17.2163C64.7182 16.9781 65.3207 16.961 65.8632 17.1686C66.4058 17.3762 66.8439 17.7915 67.0812 18.3232L70.3148 25.5872L70.6808 26.4136L70.9656 25.5566L73.284 18.5783C73.4281 18.1488 73.7007 17.7744 74.0647 17.5061C74.4286 17.2377 74.8661 17.0884 75.3176 17.0786C75.5558 17.0801 75.7924 17.1179 76.0193 17.1908C76.2963 17.2766 76.5535 17.4168 76.776 17.6033C76.9985 17.7898 77.1817 18.0189 77.3152 18.2771C77.4486 18.5354 77.5295 18.8177 77.5532 19.1076C77.5768 19.3975 77.5428 19.6892 77.453 19.9658V19.9658Z" fill="#9E9E9E"/>
<path d="M60.8581 13.3037V32.3105C60.8554 32.7869 60.6995 33.2497 60.4138 33.6302C60.128 34.0106 59.7275 34.2884 59.2718 34.4223C59.0795 34.4744 58.8813 34.5018 58.682 34.5039C58.3095 34.507 57.9424 34.415 57.6151 34.2365C57.2878 34.0581 57.0111 33.799 56.8111 33.4837L49.7847 22.0776L49.1339 21.0574V32.3513C49.1339 32.933 48.9035 33.4909 48.4936 33.9023C48.0836 34.3136 47.5275 34.5448 46.9477 34.5448C46.3679 34.5448 45.8118 34.3136 45.4018 33.9023C44.9918 33.4909 44.7614 32.933 44.7614 32.3513V13.3037C44.7632 12.8256 44.9199 12.361 45.2078 11.9801C45.4958 11.5991 45.8995 11.3225 46.3579 11.1919C46.5489 11.1323 46.7477 11.1014 46.9477 11.1C47.3186 11.0977 47.6841 11.1902 48.0096 11.3686C48.3352 11.5471 48.6101 11.8058 48.8085 12.1202L55.8451 23.5264L56.4857 24.5466V13.3037C56.4857 12.722 56.716 12.1641 57.126 11.7527C57.536 11.3414 58.0921 11.1102 58.6719 11.1102C59.2517 11.1102 59.8078 11.3414 60.2178 11.7527C60.6278 12.1641 60.8581 12.722 60.8581 13.3037V13.3037Z" fill="#9E9E9E"/>
<path d="M9.35477 40.6863C11.5441 43.7079 14.335 46.2405 17.5505 48.1238C18.471 48.6612 19.4217 49.1449 20.3977 49.5725C24.0039 51.1567 27.9097 51.937 31.8456 51.8595C35.7816 51.782 39.6539 50.8485 43.1953 49.1236C43.6468 48.8958 44.1666 48.8449 44.6535 48.9807C45.1404 49.1165 45.5594 49.4293 45.829 49.8581C45.9951 50.1028 46.1062 50.3807 46.1546 50.6727C46.2029 50.9647 46.1874 51.2637 46.109 51.5491C46.0306 51.8344 45.8913 52.0993 45.7007 52.3253C45.5102 52.5512 45.2729 52.7329 45.0053 52.8576C40.8954 54.8567 36.3994 55.93 31.8325 56.0022C27.2656 56.0745 22.7381 55.144 18.5674 53.2759C17.6014 52.8474 16.6557 52.3577 15.7202 51.8272C11.422 49.3359 7.7726 45.8593 5.07036 41.6817C2.36812 37.504 0.689805 32.744 0.172672 27.7907C0.062951 26.7367 0.00864041 25.6776 0.00997291 24.6178C0.00428262 20.0218 1.00285 15.4805 2.93537 11.3136C4.86788 7.14661 7.68735 3.4554 11.1953 0.499788C11.4177 0.308258 11.6787 0.167183 11.9606 0.0863188C12.2424 0.00545458 12.5383 -0.0132992 12.828 0.0312726C13.1177 0.0758443 13.3944 0.182684 13.6391 0.34455C13.8838 0.506416 14.0908 0.719456 14.2458 0.96905V0.96905C14.5258 1.38792 14.6413 1.89601 14.5699 2.39527C14.4986 2.89453 14.2455 3.34962 13.8594 3.67266C10.8429 6.21677 8.41376 9.38858 6.74047 12.9682C5.06717 16.5479 4.18971 20.4498 4.16888 24.4036C4.15713 25.4636 4.21145 26.5233 4.33156 27.5765C4.73836 31.2933 5.90862 34.8853 7.7685 38.1256V38.1256L9.35477 40.6863Z" fill="url(#paint0_linear_10_660)"/>
<path d="M18.171 7.06L26.6006 20.078C26.8103 20.3811 26.9341 20.7354 26.959 21.1034C26.9839 21.4714 26.9089 21.8393 26.742 22.1679C26.5751 22.4966 26.3225 22.7737 26.0111 22.9698C25.6998 23.1659 25.3412 23.2736 24.9737 23.2815L9.50751 24.0977C9.20521 24.1117 8.90349 24.0594 8.62334 23.9446C8.34319 23.8298 8.09132 23.6552 7.88522 23.4329C7.67912 23.2106 7.52372 22.9459 7.42985 22.6572C7.33597 22.3686 7.30588 22.0629 7.34162 21.7614C8.01102 15.9616 10.74 10.5978 15.029 6.65188C15.2484 6.44086 15.5121 6.28188 15.8009 6.18661C16.0896 6.09133 16.3959 6.06221 16.6973 6.10136C16.9988 6.14051 17.2876 6.24693 17.5426 6.41283C17.7977 6.57873 18.0124 6.79988 18.171 7.06Z" fill="url(#paint1_linear_10_660)"/>
<path d="M27.0582 29.4844L20.0318 43.2982C19.8983 43.5668 19.7074 43.8026 19.4727 43.9887C19.238 44.1748 18.9652 44.3067 18.6739 44.3749C18.3826 44.4431 18.0798 44.446 17.7872 44.3833C17.4947 44.3207 17.2195 44.194 16.9813 44.0124C12.3386 40.5312 9.092 35.4968 7.82968 29.8211C7.75316 29.5243 7.7443 29.2139 7.80377 28.9131C7.86324 28.6123 7.98952 28.3289 8.1732 28.0839C8.35688 27.8388 8.59325 27.6384 8.86474 27.4976C9.13623 27.3568 9.43586 27.2792 9.74135 27.2706L25.177 26.4645C25.5382 26.447 25.8975 26.5264 26.218 26.6946C26.5384 26.8627 26.8083 27.1135 27 27.4212C27.1916 27.7289 27.2981 28.0822 27.3083 28.4449C27.3185 28.8076 27.2322 29.1664 27.0582 29.4844Z" fill="url(#paint2_linear_10_660)"/>
<path d="M33.4847 30.719L41.9143 43.737C42.0892 43.9891 42.2051 44.2776 42.2534 44.581C42.3017 44.8843 42.2811 45.1947 42.1931 45.489C42.1051 45.7832 41.952 46.0537 41.7453 46.2803C41.5386 46.5069 41.2835 46.6838 40.9992 46.7977C35.6701 49.1354 29.6775 49.4579 24.1297 47.7056C23.8359 47.624 23.5642 47.4771 23.3346 47.2758C23.105 47.0746 22.9235 46.8242 22.8034 46.5431C22.6833 46.2619 22.6278 45.9573 22.6409 45.6517C22.6539 45.3461 22.7353 45.0474 22.879 44.7776L29.9054 30.8924C30.0635 30.5594 30.3086 30.2756 30.6146 30.0712C30.9206 29.8669 31.2762 29.7495 31.6434 29.7317C32.0105 29.714 32.3757 29.7963 32.6999 29.9702C33.0242 30.144 33.2953 30.4028 33.4847 30.719Z" fill="url(#paint3_linear_10_660)"/>
</g>
<defs>
<linearGradient id="paint0_linear_10_660" x1="45.7578" y1="51.5211" x2="12.0457" y2="0.102287" gradientUnits="userSpaceOnUse">
<stop stop-color="#32C9AC"/>
<stop offset="1" stop-color="#1DA1F1"/>
</linearGradient>
<linearGradient id="paint1_linear_10_660" x1="46.2664" y1="51.0111" x2="12.045" y2="-0.405497" gradientUnits="userSpaceOnUse">
<stop stop-color="#32C9AC"/>
<stop offset="1" stop-color="#1DA1F1"/>
</linearGradient>
<linearGradient id="paint2_linear_10_660" x1="46.7748" y1="51.5212" x2="12.5534" y2="0.10457" gradientUnits="userSpaceOnUse">
<stop stop-color="#32C9AC"/>
<stop offset="1" stop-color="#1DA1F1"/>
</linearGradient>
<linearGradient id="paint3_linear_10_660" x1="46.2664" y1="51.5213" x2="12.5544" y2="0.102462" gradientUnits="userSpaceOnUse">
<stop stop-color="#32C9AC"/>
<stop offset="1" stop-color="#1DA1F1"/>
</linearGradient>
<clipPath id="clip0_10_660">
<rect width="131" height="56" fill="white"/>
</clipPath>
</defs>
</svg>
