<svg width="26" height="24" viewBox="0 0 26 24" fill="none" xmlns="http://www.w3.org/2000/svg">
<path d="M6.51367 22.8574C6.98242 22.8574 7.58138 22.7272 8.31055 22.4668C9.03971 22.2064 9.8112 21.8581 10.625 21.4219C11.4388 20.9922 12.2103 20.5137 12.9395 19.9863C14.3522 19.9928 15.6771 19.8431 16.9141 19.5371C18.151 19.2311 19.2741 18.7949 20.2832 18.2285C21.2988 17.6556 22.1712 16.9785 22.9004 16.1973C23.6296 15.4095 24.1927 14.5371 24.5898 13.5801C24.987 12.623 25.1855 11.6074 25.1855 10.5332C25.1855 9.2181 24.8828 7.98763 24.2773 6.8418C23.6784 5.68945 22.8418 4.68034 21.7676 3.81445C20.6934 2.94857 19.4466 2.27148 18.0273 1.7832C16.6146 1.29492 15.0944 1.05078 13.4668 1.05078C11.8392 1.05078 10.3158 1.29492 8.89648 1.7832C7.48372 2.27148 6.24023 2.94857 5.16602 3.81445C4.09831 4.68034 3.26172 5.68945 2.65625 6.8418C2.05078 7.98763 1.74805 9.2181 1.74805 10.5332C1.74805 11.6009 1.94987 12.623 2.35352 13.5996C2.75716 14.5697 3.32682 15.4518 4.0625 16.2461C4.79818 17.0404 5.66732 17.7044 6.66992 18.2383C6.53971 18.4661 6.38997 18.7201 6.2207 19C6.05794 19.2734 5.88867 19.5404 5.71289 19.8008C5.54362 20.0612 5.39062 20.2826 5.25391 20.4648C4.99349 20.8164 4.87956 21.1777 4.91211 21.5488C4.94466 21.9199 5.10091 22.2292 5.38086 22.4766C5.66081 22.7305 6.03841 22.8574 6.51367 22.8574ZM7.92969 20.25C7.83203 20.2826 7.76693 20.2793 7.73438 20.2402C7.70833 20.2077 7.72786 20.1491 7.79297 20.0645C8.0013 19.804 8.25521 19.472 8.55469 19.0684C8.85417 18.6647 9.10482 18.2806 9.30664 17.916C9.4694 17.61 9.50846 17.3366 9.42383 17.0957C9.3457 16.8483 9.15039 16.6465 8.83789 16.4902C7.88737 16.041 7.07357 15.5104 6.39648 14.8984C5.72591 14.2799 5.21159 13.6029 4.85352 12.8672C4.49544 12.125 4.31641 11.347 4.31641 10.5332C4.31641 9.57617 4.55078 8.68099 5.01953 7.84766C5.49479 7.01432 6.14909 6.2819 6.98242 5.65039C7.82227 5.01237 8.79557 4.51432 9.90234 4.15625C11.0091 3.79167 12.1973 3.60938 13.4668 3.60938C14.7363 3.60938 15.9245 3.79167 17.0312 4.15625C18.138 4.51432 19.1081 5.01237 19.9414 5.65039C20.7812 6.2819 21.4355 7.01432 21.9043 7.84766C22.3796 8.68099 22.6172 9.57617 22.6172 10.5332C22.6172 11.4837 22.3796 12.3789 21.9043 13.2188C21.4355 14.0521 20.7812 14.7845 19.9414 15.416C19.1081 16.0475 18.138 16.5456 17.0312 16.9102C15.9245 17.2682 14.7363 17.4473 13.4668 17.4473C13.3887 17.4473 13.2943 17.4473 13.1836 17.4473C13.0794 17.4408 12.9622 17.4375 12.832 17.4375C12.6172 17.4375 12.4219 17.4701 12.2461 17.5352C12.0703 17.6003 11.8783 17.7174 11.6699 17.8867C11.2923 18.1732 10.8659 18.4792 10.3906 18.8047C9.91536 19.1237 9.45312 19.4134 9.00391 19.6738C8.5612 19.9408 8.20312 20.1328 7.92969 20.25Z" fill="url(#paint0_linear_123_6142)"/>
<defs>
<linearGradient id="paint0_linear_123_6142" x1="27" y1="21.5342" x2="6.33291" y2="-4.94318" gradientUnits="userSpaceOnUse">
<stop stop-color="#32C9AC"/>
<stop offset="1" stop-color="#1DA1F1"/>
</linearGradient>
</defs>
</svg>
