<svg width="24" height="24" viewBox="0 0 24 24" fill="none" xmlns="http://www.w3.org/2000/svg">
<path d="M17.6942 16.3482C14.4714 14.2241 10.4324 13.7076 5.68753 14.8119C5.55387 14.8389 5.42715 14.8929 5.31519 14.9707C5.20323 15.0485 5.1084 15.1485 5.03656 15.2643C4.96471 15.3802 4.91738 15.5096 4.89747 15.6445C4.87757 15.7794 4.88551 15.9169 4.92082 16.0486C4.94704 16.1829 5.00051 16.3104 5.07793 16.4233C5.15534 16.5362 5.25507 16.632 5.37095 16.7048C5.48683 16.7776 5.6164 16.8259 5.75167 16.8467C5.88694 16.8675 6.02504 16.8604 6.15745 16.8257C11.9677 15.4759 14.83 17.0864 16.2064 17.8617C16.4801 18.0581 16.7956 18.1884 17.1282 18.2422C17.3504 18.2428 17.5669 18.1716 17.7455 18.0393C17.9241 17.907 18.0552 17.7206 18.1193 17.5079C18.1834 17.2951 18.1771 17.0673 18.1014 16.8583C18.0257 16.6494 17.8845 16.4705 17.6989 16.3482H17.6942Z" fill="#1DA1F1"/>
<path d="M18.7025 12.8343C14.4867 10.6653 9.63547 10.071 5.02072 11.1582C4.88744 11.1855 4.76117 11.2399 4.64971 11.3179C4.53825 11.3959 4.44396 11.496 4.37266 11.6118C4.30135 11.7277 4.25454 11.857 4.23512 11.9916C4.21569 12.1263 4.22407 12.2635 4.25972 12.3948C4.2867 12.5285 4.34073 12.6553 4.4185 12.7674C4.49626 12.8794 4.59612 12.9744 4.71193 13.0465C4.82774 13.1186 4.95707 13.1662 5.09196 13.1865C5.22685 13.2067 5.36446 13.1992 5.49634 13.1644C9.61147 12.1894 13.9393 12.7125 17.7037 14.6398C17.8606 14.7281 18.0373 14.7753 18.2174 14.7767C18.3918 14.777 18.5629 14.7293 18.712 14.6388C18.8744 14.5391 19.0083 14.3991 19.1006 14.2325C19.1929 14.0658 19.2406 13.8781 19.239 13.6876C19.2348 13.5102 19.1827 13.3373 19.0882 13.1871C18.9938 13.0369 18.8605 12.915 18.7025 12.8343V12.8343Z" fill="#1DA1F1"/>
<path d="M4.35477 7.38168C4.18337 7.4286 4.02779 7.52087 3.90441 7.64877C3.78104 7.77666 3.69443 7.93546 3.6537 8.10844C3.61308 8.29445 3.62116 8.48779 3.67716 8.66977C3.73315 8.85175 3.83516 9.01619 3.97332 9.1472C4.10373 9.26723 4.26398 9.35006 4.43732 9.38704C4.61067 9.42401 4.79076 9.41379 4.95881 9.35742C9.30126 8.02663 15.3845 8.75338 18.8118 11.0031C18.9236 11.0824 19.0505 11.1377 19.1846 11.1655C19.3188 11.1934 19.4573 11.1931 19.5913 11.1648C19.7254 11.1364 19.8521 11.0807 19.9635 11.0009C20.0749 10.9212 20.1686 10.8193 20.2387 10.7015C20.3177 10.5909 20.3731 10.4652 20.4015 10.3322C20.43 10.1993 20.4308 10.0619 20.4041 9.92866C20.3774 9.79537 20.3235 9.66898 20.246 9.55731C20.1685 9.44564 20.0689 9.35106 19.9533 9.27942C15.9999 6.68822 9.29936 5.873 4.35477 7.38168Z" fill="#1DA1F1"/>
<path d="M11.9991 0C9.62568 0.000188147 7.30566 0.70416 5.33237 2.02289C3.35909 3.34163 1.82116 5.21589 0.913087 7.40868C0.00500923 9.60146 -0.232439 12.0143 0.230768 14.342C0.693975 16.6697 1.83703 18.8079 3.5154 20.4859C5.19376 22.164 7.33204 23.3068 9.65985 23.7696C11.9877 24.2324 14.4004 23.9946 16.5931 23.0862C18.7857 22.1778 20.6597 20.6395 21.9782 18.666C23.2966 16.6926 24.0002 14.3724 24 11.999C23.996 8.81761 22.7302 5.76766 20.4804 3.51822C18.2306 1.26878 15.1805 0.00352399 11.9991 0V0ZM21.9348 11.999C21.935 13.9642 21.3525 15.8853 20.2608 17.5193C19.1692 19.1534 17.6175 20.427 15.802 21.1792C13.9865 21.9314 11.9887 22.1283 10.0613 21.745C8.13384 21.3617 6.36336 20.4155 4.97372 19.026C3.58408 17.6365 2.6377 15.8661 2.25425 13.9387C1.87079 12.0113 2.0675 10.0135 2.81949 8.19796C3.57148 6.38237 4.84497 4.83056 6.47892 3.73876C8.11288 2.64696 10.0339 2.06421 11.9991 2.06421C14.6331 2.06723 17.1584 3.11487 19.021 4.97733C20.8837 6.8398 21.9316 9.365 21.9348 11.999V11.999Z" fill="#1DA1F1"/>
</svg>
