<svg width="32" height="24" viewBox="0 0 32 24" fill="none" xmlns="http://www.w3.org/2000/svg">
<path d="M13.2534 6.62191C13.1015 6.53421 12.9286 6.48716 12.752 6.48552C12.5755 6.48388 12.4016 6.52772 12.2481 6.61258C12.0946 6.69745 11.9668 6.82032 11.8779 6.96874C11.7889 7.11716 11.7418 7.28584 11.7415 7.45768V16.5405C11.742 16.7123 11.7891 16.8809 11.8781 17.0293C11.967 17.1776 12.0947 17.3005 12.2482 17.3854C12.4016 17.4704 12.5754 17.5143 12.7519 17.5129C12.9284 17.5114 13.1014 17.4646 13.2534 17.3772L21.0777 12.8425C21.2261 12.7559 21.3489 12.6333 21.4341 12.4868C21.5194 12.3402 21.5642 12.1747 21.5642 12.0063C21.5642 11.8379 21.5194 11.6723 21.4341 11.5258C21.3489 11.3792 21.2261 11.2567 21.0777 11.17L13.2534 6.62191ZM13.7415 14.8295V9.17152L18.6142 12.0048L13.7415 14.8295Z" fill="#1DA1F1"/>
<path d="M26.5393 0.672489C19.5443 -0.224163 12.4586 -0.224163 5.46361 0.672489C4.24345 0.856008 3.11464 1.41179 2.23984 2.25974C1.36504 3.1077 0.789405 4.20406 0.595882 5.39085C-0.198627 9.76239 -0.198627 14.2357 0.595882 18.6073C0.789236 19.7936 1.36443 20.8897 2.23866 21.7376C3.11288 22.5855 4.24102 23.1415 5.46065 23.3256C8.95737 23.7931 12.4838 24.0181 16.0133 23.9988C19.5333 24.0183 23.0502 23.7933 26.5373 23.3256C27.7573 23.1419 28.8859 22.586 29.7605 21.7381C30.6351 20.8902 31.2106 19.7939 31.4041 18.6073C32.1986 14.2348 32.1986 9.76047 31.4041 5.38796C31.2096 4.20264 30.6339 3.10787 29.7598 2.26109C28.8856 1.4143 27.7581 0.859123 26.5393 0.675374V0.672489ZM29.4327 18.2841C29.3086 19.065 28.9333 19.7874 28.3606 20.3475C27.788 20.9076 27.0475 21.2765 26.2458 21.4011C19.4454 22.2709 12.5571 22.2693 5.7571 21.3963C4.95632 21.2716 4.21675 20.9031 3.64455 20.3438C3.07235 19.7844 2.69695 19.063 2.57222 18.2831C1.80701 14.1265 1.80701 9.87062 2.57222 5.714C2.69667 4.93343 3.07202 4.21132 3.6444 3.6513C4.21678 3.09129 4.95675 2.72218 5.75809 2.59696C9.15172 2.14384 12.5741 1.92562 15.9995 1.94393C19.4259 1.9255 22.8492 2.14373 26.2439 2.59696C27.0457 2.72139 27.7864 3.0902 28.3592 3.65032C28.9321 4.21044 29.3076 4.93299 29.4317 5.714C30.197 9.87126 30.197 14.1278 29.4317 18.2851L29.4327 18.2841Z" fill="#1DA1F1"/>
</svg>
